<svg xmlns="http://www.w3.org/2000/svg" xmlns:xlink="http://www.w3.org/1999/xlink" width="500" zoomAndPan="magnify" viewBox="0 0 375 374.999991" height="500" preserveAspectRatio="xMidYMid meet" version="1.0"><defs><clipPath id="3baccdf339"><path d="M 69 43 L 328.75 43 L 328.75 361.007812 L 69 361.007812 Z M 69 43 " clip-rule="nonzero"/></clipPath><clipPath id="c82acf57b2"><path d="M 259 43 L 328.75 43 L 328.75 113 L 259 113 Z M 259 43 " clip-rule="nonzero"/></clipPath><clipPath id="026ba822ec"><path d="M 259 292 L 328.75 292 L 328.75 361.007812 L 259 361.007812 Z M 259 292 " clip-rule="nonzero"/></clipPath><clipPath id="2b9208f22a"><path d="M 69 292 L 139 292 L 139 361.007812 L 69 361.007812 Z M 69 292 " clip-rule="nonzero"/></clipPath><clipPath id="b68f6f98f2"><path d="M 34 13.757812 L 111 13.757812 L 111 90 L 34 90 Z M 34 13.757812 " clip-rule="nonzero"/></clipPath><clipPath id="4a2dc92561"><path d="M 22.75 72 L 71 72 L 71 121 L 22.75 121 Z M 22.75 72 " clip-rule="nonzero"/></clipPath></defs><path fill="#0b3988" d="M 299.714844 120.210938 C 273.007812 120.210938 251.277344 98.480469 251.277344 71.773438 C 251.277344 70.25 252.507812 69.019531 254.03125 69.019531 C 255.550781 69.019531 256.785156 70.25 256.785156 71.773438 C 256.785156 95.445312 276.042969 114.703125 299.714844 114.703125 C 301.234375 114.703125 302.46875 115.9375 302.46875 117.457031 C 302.46875 118.980469 301.234375 120.210938 299.714844 120.210938 " fill-opacity="1" fill-rule="nonzero"/><path fill="#0b3988" d="M 98.546875 119.105469 C 97.058594 119.105469 95.832031 117.914062 95.796875 116.417969 C 95.761719 114.894531 96.964844 113.632812 98.484375 113.597656 C 98.800781 113.589844 99.121094 113.578125 99.441406 113.566406 C 100.957031 113.488281 102.25 114.664062 102.324219 116.179688 C 102.398438 117.699219 101.226562 118.988281 99.707031 119.066406 C 99.34375 119.082031 98.980469 119.09375 98.613281 119.105469 C 98.59375 119.105469 98.570312 119.105469 98.546875 119.105469 " fill-opacity="1" fill-rule="nonzero"/><path fill="#0b3988" d="M 100.449219 119.019531 C 99.011719 119.019531 97.800781 117.902344 97.703125 116.445312 C 97.605469 114.929688 98.753906 113.617188 100.269531 113.519531 C 122.578125 112.054688 139.800781 94.082031 140.332031 71.707031 L 140.339844 71.28125 C 140.367188 69.761719 141.621094 68.550781 143.144531 68.578125 C 144.664062 68.605469 145.875 69.859375 145.847656 71.378906 L 145.835938 71.824219 C 145.546875 83.996094 140.742188 95.515625 132.308594 104.273438 C 123.917969 112.988281 112.667969 118.222656 100.632812 119.011719 C 100.570312 119.015625 100.511719 119.019531 100.449219 119.019531 " fill-opacity="1" fill-rule="nonzero"/><g clip-path="url(#3baccdf339)"><path fill="#0b3988" d="M 101.421875 71.773438 Z M 75.296875 355.722656 L 322.96875 355.722656 L 322.96875 48.519531 L 110.335938 48.519531 C 110.421875 49.574219 110.46875 50.632812 110.46875 51.695312 C 110.46875 59.496094 108.121094 66.984375 103.679688 73.347656 C 103.644531 73.398438 103.609375 73.445312 103.574219 73.492188 L 102.132812 75.292969 L 121.617188 101.972656 C 122.308594 102.917969 122.324219 104.199219 121.65625 105.164062 C 120.988281 106.125 119.78125 106.5625 118.652344 106.246094 L 103.730469 102.074219 L 103.160156 117.558594 C 103.117188 118.730469 102.335938 119.746094 101.214844 120.089844 C 100.089844 120.433594 98.875 120.027344 98.183594 119.082031 L 76.519531 89.414062 C 76.113281 89.457031 75.703125 89.492188 75.296875 89.519531 Z M 325.722656 361.230469 L 72.542969 361.230469 C 71.023438 361.230469 69.789062 359.996094 69.789062 358.476562 L 69.789062 86.867188 C 69.789062 85.347656 71.023438 84.113281 72.542969 84.113281 C 74.148438 84.113281 75.753906 83.996094 77.324219 83.761719 C 77.515625 83.730469 77.710938 83.71875 77.90625 83.726562 C 77.90625 83.726562 77.910156 83.726562 77.914062 83.726562 C 78.089844 83.734375 78.261719 83.761719 78.429688 83.800781 C 78.433594 83.804688 78.433594 83.804688 78.4375 83.804688 C 79.011719 83.941406 79.542969 84.269531 79.9375 84.761719 C 79.960938 84.792969 79.984375 84.824219 80.007812 84.855469 L 97.949219 109.421875 L 98.355469 98.378906 C 98.386719 97.539062 98.800781 96.757812 99.484375 96.257812 C 100.164062 95.761719 101.035156 95.605469 101.847656 95.832031 L 112.484375 98.804688 L 97.066406 77.691406 C 96.957031 77.621094 96.847656 77.542969 96.746094 77.453125 C 95.628906 76.484375 95.476562 74.808594 96.398438 73.65625 L 99.210938 70.128906 C 102.972656 64.703125 104.960938 58.332031 104.960938 51.695312 C 104.960938 49.855469 104.804688 48.019531 104.5 46.230469 C 104.363281 45.433594 104.585938 44.613281 105.109375 43.992188 C 105.632812 43.371094 106.402344 43.015625 107.214844 43.015625 L 325.722656 43.015625 C 327.242188 43.015625 328.472656 44.246094 328.472656 45.765625 L 328.472656 358.476562 C 328.472656 359.996094 327.242188 361.230469 325.722656 361.230469 " fill-opacity="1" fill-rule="nonzero"/></g><path fill="#0b3988" d="M 299.714844 289.53125 C 298.191406 289.53125 296.960938 288.300781 296.960938 286.777344 L 296.960938 117.457031 C 296.960938 115.9375 298.191406 114.703125 299.714844 114.703125 C 301.234375 114.703125 302.46875 115.9375 302.46875 117.457031 L 302.46875 286.777344 C 302.46875 288.300781 301.234375 289.53125 299.714844 289.53125 " fill-opacity="1" fill-rule="nonzero"/><path fill="#0b3988" d="M 98.550781 289.53125 C 97.027344 289.53125 95.796875 288.300781 95.796875 286.777344 L 95.796875 114.914062 C 95.796875 113.394531 97.027344 112.160156 98.550781 112.160156 C 100.070312 112.160156 101.304688 113.394531 101.304688 114.914062 L 101.304688 286.777344 C 101.304688 288.300781 100.070312 289.53125 98.550781 289.53125 " fill-opacity="1" fill-rule="nonzero"/><path fill="#0b3988" d="M 254.03125 74.527344 L 143.085938 74.527344 C 141.566406 74.527344 140.332031 73.292969 140.332031 71.773438 C 140.332031 70.25 141.566406 69.019531 143.085938 69.019531 L 254.03125 69.019531 C 255.550781 69.019531 256.785156 70.25 256.785156 71.773438 C 256.785156 73.292969 255.550781 74.527344 254.03125 74.527344 " fill-opacity="1" fill-rule="nonzero"/><path fill="#0b3988" d="M 254.03125 335.222656 L 144.234375 335.222656 C 142.714844 335.222656 141.480469 333.988281 141.480469 332.46875 C 141.480469 330.949219 142.714844 329.714844 144.234375 329.714844 L 254.03125 329.714844 C 255.550781 329.714844 256.78125 330.949219 256.78125 332.46875 C 256.78125 333.988281 255.550781 335.222656 254.03125 335.222656 " fill-opacity="1" fill-rule="nonzero"/><g clip-path="url(#c82acf57b2)"><path fill="#0b3988" d="M 325.722656 112.09375 C 324.203125 112.09375 322.96875 110.863281 322.96875 109.34375 L 322.96875 48.519531 L 262.144531 48.519531 C 260.625 48.519531 259.390625 47.285156 259.390625 45.765625 C 259.390625 44.246094 260.625 43.011719 262.144531 43.011719 L 325.722656 43.011719 C 327.242188 43.011719 328.472656 44.246094 328.472656 45.765625 L 328.472656 109.34375 C 328.472656 110.863281 327.242188 112.09375 325.722656 112.09375 " fill-opacity="1" fill-rule="nonzero"/></g><path fill="#0b3988" d="M 72.542969 112.09375 C 71.023438 112.09375 69.789062 110.859375 69.789062 109.339844 L 69.789062 86.867188 C 69.789062 85.347656 71.023438 84.113281 72.542969 84.113281 C 74.0625 84.113281 75.296875 85.347656 75.296875 86.867188 L 75.296875 109.339844 C 75.296875 110.859375 74.0625 112.09375 72.542969 112.09375 " fill-opacity="1" fill-rule="nonzero"/><path fill="#0b3988" d="M 136.117188 48.519531 L 107.214844 48.519531 C 105.691406 48.519531 104.460938 47.285156 104.460938 45.765625 C 104.460938 44.246094 105.691406 43.015625 107.214844 43.015625 L 136.117188 43.015625 C 137.636719 43.015625 138.871094 44.246094 138.871094 45.765625 C 138.871094 47.285156 137.636719 48.519531 136.117188 48.519531 " fill-opacity="1" fill-rule="nonzero"/><g clip-path="url(#026ba822ec)"><path fill="#0b3988" d="M 325.722656 361.230469 L 262.148438 361.230469 C 260.628906 361.230469 259.394531 359.996094 259.394531 358.476562 C 259.394531 356.953125 260.628906 355.722656 262.148438 355.722656 L 322.96875 355.722656 L 322.96875 294.898438 C 322.96875 293.378906 324.203125 292.144531 325.722656 292.144531 C 327.242188 292.144531 328.472656 293.378906 328.472656 294.898438 L 328.472656 358.476562 C 328.472656 359.996094 327.242188 361.230469 325.722656 361.230469 " fill-opacity="1" fill-rule="nonzero"/></g><path fill="#0b3988" d="M 254.03125 335.222656 C 252.507812 335.222656 251.277344 333.988281 251.277344 332.46875 C 251.277344 305.757812 273.007812 284.027344 299.714844 284.027344 C 301.234375 284.027344 302.46875 285.257812 302.46875 286.777344 C 302.46875 288.300781 301.234375 289.535156 299.714844 289.535156 C 276.042969 289.535156 256.78125 308.792969 256.78125 332.46875 C 256.78125 333.988281 255.550781 335.222656 254.03125 335.222656 " fill-opacity="1" fill-rule="nonzero"/><g clip-path="url(#2b9208f22a)"><path fill="#0b3988" d="M 136.113281 361.230469 L 72.542969 361.230469 C 71.023438 361.230469 69.789062 359.996094 69.789062 358.476562 L 69.789062 294.898438 C 69.789062 293.378906 71.023438 292.144531 72.542969 292.144531 C 74.0625 292.144531 75.296875 293.378906 75.296875 294.898438 L 75.296875 355.722656 L 136.113281 355.722656 C 137.636719 355.722656 138.867188 356.953125 138.867188 358.476562 C 138.867188 359.996094 137.636719 361.230469 136.113281 361.230469 " fill-opacity="1" fill-rule="nonzero"/></g><path fill="#0b3988" d="M 144.234375 335.222656 C 142.714844 335.222656 141.480469 333.988281 141.480469 332.46875 C 141.480469 308.792969 122.222656 289.535156 98.546875 289.535156 C 97.027344 289.535156 95.796875 288.300781 95.796875 286.777344 C 95.796875 285.257812 97.027344 284.027344 98.546875 284.027344 C 125.257812 284.027344 146.988281 305.757812 146.988281 332.46875 C 146.988281 333.988281 145.753906 335.222656 144.234375 335.222656 " fill-opacity="1" fill-rule="nonzero"/><g clip-path="url(#b68f6f98f2)"><path stroke-linecap="round" transform="matrix(0.0191505, 0, 0, -0.0191505, -15.798741, 380.379438)" fill="none" stroke-linejoin="round" d="M 5267.377781 16207.169763 L 5279.412384 16137.817816 L 5217.199608 16170.454026 L 4613.021767 16488.249123 L 4008.843925 16170.454026 L 3946.63115 16137.817816 L 3947.855008 16145.160963 L 3958.665752 16207.169763 L 4073.912369 16879.883646 L 3534.802972 17405.32663 L 4279.72447 17513.638052 L 4613.021767 18188.799651 L 4946.319063 17513.638052 L 5209.856461 17475.290505 L 5227.6024 17472.84279 L 5691.036585 17405.32663 L 5152.131164 16879.883646 Z M 6121.018654 16114.768493 C 6328.258589 16411.961982 6449.624496 16773.40801 6449.624496 17163.206745 C 6449.624496 17268.866476 6440.649538 17372.078491 6423.515527 17472.84279 C 6369.257828 17793.289578 6231.981769 18085.38366 6034.532697 18326.279686 C 5697.767803 18737.495935 5185.991232 19000.013451 4613.021767 19000.013451 C 3598.647558 19000.013451 2776.419038 18177.78493 2776.419038 17163.206745 C 2776.419038 16699.976537 2947.759141 16276.725686 3230.878265 15953.831181 C 3236.589602 15947.303939 3242.300938 15940.776697 3248.216251 15934.249455 C 3526.64392 15625.021363 3908.487579 15411.254187 4339.285554 15347.001648 C 4428.627179 15333.539211 4519.804591 15326.604016 4613.021767 15326.604016 C 4706.238942 15326.604016 4797.416354 15333.539211 4886.75798 15347.001648 C 5314.088357 15410.642258 5693.484301 15621.553766 5971.096064 15926.906308 " stroke="#100f0d" stroke-width="287.53299" stroke-opacity="1" stroke-miterlimit="10"/></g><path fill="#0b3988" d="M 57.8125 48.980469 L 64.140625 55.148438 C 64.789062 55.78125 65.085938 56.695312 64.933594 57.585938 L 63.4375 66.296875 L 71.261719 62.183594 C 72.0625 61.761719 73.019531 61.761719 73.824219 62.183594 L 81.648438 66.296875 L 80.152344 57.585938 C 80 56.695312 80.296875 55.78125 80.945312 55.148438 L 87.273438 48.980469 L 78.53125 47.710938 C 77.632812 47.582031 76.855469 47.015625 76.457031 46.203125 L 72.542969 38.277344 L 68.628906 46.203125 C 68.230469 47.015625 67.453125 47.582031 66.558594 47.710938 Z M 59.78125 74.085938 C 59.207031 74.085938 58.636719 73.902344 58.15625 73.550781 C 57.304688 72.929688 56.886719 71.878906 57.070312 70.84375 L 57.296875 69.539062 L 59.261719 58.082031 L 49.972656 49.03125 C 49.222656 48.296875 48.953125 47.203125 49.277344 46.207031 C 49.601562 45.210938 50.464844 44.484375 51.5 44.332031 L 64.332031 42.46875 L 70.074219 30.835938 C 70.539062 29.898438 71.496094 29.300781 72.542969 29.300781 C 73.589844 29.300781 74.546875 29.898438 75.011719 30.835938 L 80.753906 42.46875 L 93.585938 44.332031 C 94.621094 44.484375 95.484375 45.210938 95.808594 46.207031 C 96.128906 47.203125 95.859375 48.296875 95.109375 49.03125 L 85.824219 58.082031 L 88.015625 70.863281 C 88.195312 71.894531 87.769531 72.941406 86.921875 73.558594 C 86.074219 74.175781 84.949219 74.253906 84.023438 73.769531 L 72.542969 67.730469 L 61.0625 73.769531 C 60.660156 73.980469 60.21875 74.085938 59.78125 74.085938 " fill-opacity="1" fill-rule="nonzero"/><path fill="#0b3988" d="M 100.40625 120.210938 C 99.546875 120.210938 98.710938 119.804688 98.183594 119.082031 L 96.328125 116.535156 C 95.429688 115.308594 95.699219 113.589844 96.925781 112.691406 C 97.210938 112.484375 97.523438 112.335938 97.84375 112.25 L 98.355469 98.378906 C 98.386719 97.539062 98.800781 96.757812 99.484375 96.257812 C 100.164062 95.761719 101.035156 95.605469 101.847656 95.832031 L 112.484375 98.804688 L 97.058594 77.683594 C 96.921875 77.59375 96.789062 77.492188 96.667969 77.375 C 95.558594 76.335938 95.5 74.597656 96.542969 73.488281 C 96.542969 73.488281 96.550781 73.480469 96.550781 73.480469 C 96.570312 73.457031 96.59375 73.433594 96.613281 73.410156 C 97.167969 72.785156 97.972656 72.441406 98.804688 72.480469 C 99.636719 72.519531 100.410156 72.933594 100.902344 73.609375 L 121.617188 101.972656 C 122.308594 102.917969 122.324219 104.199219 121.65625 105.164062 C 120.988281 106.128906 119.78125 106.5625 118.652344 106.246094 L 103.730469 102.074219 L 103.160156 117.558594 C 103.117188 118.730469 102.335938 119.746094 101.214844 120.089844 C 100.949219 120.171875 100.675781 120.210938 100.40625 120.210938 " fill-opacity="1" fill-rule="nonzero"/><g clip-path="url(#4a2dc92561)"><path fill="#0b3988" d="M 43.976562 95.726562 C 44.554688 95.726562 45.125 95.910156 45.601562 96.257812 C 46.28125 96.757812 46.699219 97.539062 46.730469 98.378906 L 47.136719 109.421875 L 62.566406 88.292969 C 56.671875 86.683594 51.21875 83.652344 46.71875 79.472656 L 32.597656 98.804688 L 43.238281 95.832031 C 43.480469 95.761719 43.730469 95.726562 43.976562 95.726562 Z M 44.675781 120.210938 C 44.410156 120.210938 44.136719 120.171875 43.871094 120.089844 C 42.75 119.746094 41.96875 118.730469 41.925781 117.558594 L 41.355469 102.074219 L 26.433594 106.246094 C 25.304688 106.5625 24.097656 106.125 23.429688 105.164062 C 22.761719 104.199219 22.777344 102.917969 23.46875 101.972656 L 44.183594 73.609375 C 44.671875 72.9375 45.4375 72.523438 46.265625 72.480469 C 47.09375 72.441406 47.898438 72.773438 48.453125 73.390625 C 53.480469 78.972656 60.316406 82.652344 67.707031 83.753906 C 68.660156 83.898438 69.46875 84.527344 69.839844 85.414062 C 70.210938 86.304688 70.09375 87.324219 69.523438 88.101562 L 46.902344 119.082031 C 46.375 119.804688 45.539062 120.210938 44.675781 120.210938 " fill-opacity="1" fill-rule="nonzero"/></g><path fill="#0b3988" d="M 228.589844 171.738281 L 169.671875 171.738281 C 168.152344 171.738281 166.917969 170.503906 166.917969 168.984375 C 166.917969 167.460938 168.152344 166.230469 169.671875 166.230469 L 228.589844 166.230469 C 230.109375 166.230469 231.34375 167.460938 231.34375 168.984375 C 231.34375 170.503906 230.109375 171.738281 228.589844 171.738281 " fill-opacity="1" fill-rule="nonzero"/><path fill="#0b3988" d="M 264.6875 193.585938 L 133.578125 193.585938 C 132.058594 193.585938 130.824219 192.355469 130.824219 190.832031 C 130.824219 189.3125 132.058594 188.078125 133.578125 188.078125 L 264.6875 188.078125 C 266.207031 188.078125 267.441406 189.3125 267.441406 190.832031 C 267.441406 192.355469 266.207031 193.585938 264.6875 193.585938 " fill-opacity="1" fill-rule="nonzero"/><path fill="#0b3988" d="M 264.6875 242.042969 L 133.578125 242.042969 C 132.058594 242.042969 130.824219 240.808594 130.824219 239.289062 C 130.824219 237.769531 132.058594 236.535156 133.578125 236.535156 L 264.6875 236.535156 C 266.207031 236.535156 267.441406 237.769531 267.441406 239.289062 C 267.441406 240.808594 266.207031 242.042969 264.6875 242.042969 " fill-opacity="1" fill-rule="nonzero"/><path fill="#0b3988" d="M 278.335938 216.9375 L 119.925781 216.9375 C 118.40625 216.9375 117.175781 215.703125 117.175781 214.183594 C 117.175781 212.664062 118.40625 211.429688 119.925781 211.429688 L 278.335938 211.429688 C 279.855469 211.429688 281.089844 212.664062 281.089844 214.183594 C 281.089844 215.703125 279.855469 216.9375 278.335938 216.9375 " fill-opacity="1" fill-rule="nonzero"/><path fill="#0b3988" d="M 278.335938 266.941406 L 119.925781 266.941406 C 118.40625 266.941406 117.175781 265.707031 117.175781 264.1875 C 117.175781 262.667969 118.40625 261.433594 119.925781 261.433594 L 278.335938 261.433594 C 279.855469 261.433594 281.089844 262.667969 281.089844 264.1875 C 281.089844 265.707031 279.855469 266.941406 278.335938 266.941406 " fill-opacity="1" fill-rule="nonzero"/><path fill="#0b3988" d="M 125.011719 150.339844 C 123.84375 149.484375 123.257812 148.28125 123.257812 146.726562 L 123.257812 136.035156 C 123.257812 134.480469 123.84375 133.277344 125.011719 132.421875 C 126.183594 131.570312 127.882812 131.144531 130.109375 131.144531 C 132.335938 131.144531 134.035156 131.570312 135.207031 132.421875 C 136.375 133.277344 136.960938 134.480469 136.960938 136.035156 L 136.960938 138.140625 L 132.5625 138.140625 L 132.5625 135.835938 C 132.5625 134.605469 131.785156 133.988281 130.234375 133.988281 C 128.683594 133.988281 127.910156 134.605469 127.910156 135.835938 L 127.910156 146.957031 C 127.910156 148.167969 128.683594 148.773438 130.234375 148.773438 C 131.785156 148.773438 132.5625 148.167969 132.5625 146.957031 L 132.5625 143.914062 L 136.960938 143.914062 L 136.960938 146.726562 C 136.960938 148.28125 136.375 149.484375 135.207031 150.339844 C 134.035156 151.191406 132.335938 151.617188 130.109375 151.617188 C 127.882812 151.617188 126.183594 151.191406 125.011719 150.339844 " fill-opacity="1" fill-rule="nonzero"/><path fill="#0b3988" d="M 130.109375 131.429688 C 127.953125 131.429688 126.296875 131.839844 125.179688 132.652344 C 124.078125 133.457031 123.542969 134.5625 123.542969 136.035156 L 123.542969 146.726562 C 123.542969 148.199219 124.078125 149.304688 125.179688 150.109375 C 126.296875 150.921875 127.953125 151.332031 130.109375 151.332031 C 132.265625 151.332031 133.921875 150.921875 135.039062 150.109375 C 136.140625 149.304688 136.675781 148.199219 136.675781 146.726562 L 136.675781 144.195312 L 132.847656 144.195312 L 132.847656 146.957031 C 132.847656 147.914062 132.394531 149.058594 130.234375 149.058594 C 128.078125 149.058594 127.625 147.914062 127.625 146.957031 L 127.625 135.835938 C 127.625 134.863281 128.078125 133.703125 130.234375 133.703125 C 132.394531 133.703125 132.847656 134.863281 132.847656 135.835938 L 132.847656 137.855469 L 136.675781 137.855469 L 136.675781 136.035156 C 136.675781 134.5625 136.140625 133.457031 135.039062 132.652344 C 133.921875 131.839844 132.265625 131.429688 130.109375 131.429688 Z M 130.109375 151.902344 C 127.828125 151.902344 126.058594 151.453125 124.84375 150.570312 C 123.601562 149.664062 122.972656 148.371094 122.972656 146.726562 L 122.972656 136.035156 C 122.972656 134.390625 123.601562 133.097656 124.84375 132.191406 C 126.058594 131.308594 127.828125 130.859375 130.109375 130.859375 C 132.386719 130.859375 134.160156 131.308594 135.371094 132.191406 C 136.613281 133.101562 137.246094 134.390625 137.246094 136.035156 L 137.246094 138.425781 L 132.277344 138.425781 L 132.277344 135.835938 C 132.277344 135.164062 132.066406 134.269531 130.234375 134.269531 C 128.40625 134.269531 128.195312 135.164062 128.195312 135.835938 L 128.195312 146.957031 C 128.195312 147.613281 128.40625 148.488281 130.234375 148.488281 C 132.066406 148.488281 132.277344 147.613281 132.277344 146.957031 L 132.277344 143.628906 L 137.246094 143.628906 L 137.246094 146.726562 C 137.246094 148.371094 136.613281 149.664062 135.371094 150.570312 C 134.15625 151.453125 132.386719 151.902344 130.109375 151.902344 " fill-opacity="1" fill-rule="nonzero"/><path fill="#0b3988" d="M 139.75 131.429688 L 152.4375 131.429688 L 152.4375 134.273438 L 144.402344 134.273438 L 144.402344 139.535156 L 150.789062 139.535156 L 150.789062 142.375 L 144.402344 142.375 L 144.402344 148.488281 L 152.4375 148.488281 L 152.4375 151.332031 L 139.75 151.332031 L 139.75 131.429688 " fill-opacity="1" fill-rule="nonzero"/><path fill="#0b3988" d="M 140.035156 151.050781 L 152.15625 151.050781 L 152.15625 148.773438 L 144.121094 148.773438 L 144.121094 142.089844 L 150.503906 142.089844 L 150.503906 139.816406 L 144.121094 139.816406 L 144.121094 133.988281 L 152.15625 133.988281 L 152.15625 131.710938 L 140.035156 131.710938 Z M 152.722656 151.617188 L 139.46875 151.617188 L 139.46875 131.144531 L 152.722656 131.144531 L 152.722656 134.554688 L 144.6875 134.554688 L 144.6875 139.246094 L 151.074219 139.246094 L 151.074219 142.660156 L 144.6875 142.660156 L 144.6875 148.207031 L 152.722656 148.207031 L 152.722656 151.617188 " fill-opacity="1" fill-rule="nonzero"/><path fill="#0b3988" d="M 161.445312 139.957031 C 162.378906 139.957031 163.074219 139.796875 163.539062 139.476562 C 164.003906 139.152344 164.238281 138.613281 164.238281 137.855469 L 164.238281 136.320312 C 164.238281 135.597656 164.046875 135.078125 163.667969 134.753906 C 163.285156 134.433594 162.6875 134.273438 161.871094 134.273438 L 159.753906 134.273438 L 159.753906 139.957031 Z M 155.101562 131.429688 L 161.996094 131.429688 C 164.394531 131.429688 166.140625 131.800781 167.242188 132.550781 C 168.339844 133.300781 168.890625 134.453125 168.890625 136.003906 L 168.890625 137.230469 C 168.890625 139.296875 167.875 140.605469 165.84375 141.152344 L 165.84375 141.210938 C 166.972656 141.4375 167.769531 141.902344 168.234375 142.605469 C 168.699219 143.304688 168.933594 144.242188 168.933594 145.417969 L 168.933594 148.917969 C 168.933594 149.484375 168.960938 149.945312 169.015625 150.296875 C 169.074219 150.648438 169.214844 150.992188 169.441406 151.332031 L 164.703125 151.332031 C 164.535156 151.011719 164.421875 150.710938 164.363281 150.421875 C 164.308594 150.140625 164.28125 149.628906 164.28125 148.886719 L 164.28125 145.25 C 164.28125 144.339844 164.0625 143.703125 163.625 143.34375 C 163.1875 142.984375 162.433594 142.800781 161.363281 142.800781 L 159.753906 142.800781 L 159.753906 151.332031 L 155.101562 151.332031 L 155.101562 131.429688 " fill-opacity="1" fill-rule="nonzero"/><path fill="#0b3988" d="M 160.039062 139.675781 L 161.445312 139.675781 C 162.316406 139.675781 162.964844 139.527344 163.378906 139.242188 C 163.765625 138.972656 163.953125 138.519531 163.953125 137.855469 L 163.953125 136.320312 C 163.953125 135.691406 163.796875 135.234375 163.484375 134.972656 C 163.15625 134.695312 162.613281 134.554688 161.871094 134.554688 L 160.039062 134.554688 Z M 161.445312 140.242188 L 159.472656 140.242188 L 159.472656 133.988281 L 161.871094 133.988281 C 162.765625 133.988281 163.414062 134.167969 163.851562 134.539062 C 164.296875 134.914062 164.523438 135.515625 164.523438 136.320312 L 164.523438 137.855469 C 164.523438 138.707031 164.246094 139.332031 163.703125 139.710938 C 163.183594 140.070312 162.445312 140.242188 161.445312 140.242188 Z M 164.878906 151.050781 L 168.953125 151.050781 C 168.847656 150.816406 168.773438 150.578125 168.734375 150.339844 C 168.675781 149.976562 168.648438 149.511719 168.648438 148.917969 L 168.648438 145.417969 C 168.648438 144.308594 168.429688 143.414062 167.996094 142.761719 C 167.578125 142.128906 166.835938 141.703125 165.789062 141.488281 L 165.5625 141.441406 L 165.5625 140.9375 L 165.769531 140.878906 C 167.679688 140.363281 168.605469 139.167969 168.605469 137.230469 L 168.605469 136.003906 C 168.605469 134.539062 168.105469 133.484375 167.082031 132.785156 C 166.035156 132.074219 164.324219 131.710938 161.996094 131.710938 L 155.386719 131.710938 L 155.386719 151.050781 L 159.472656 151.050781 L 159.472656 142.519531 L 161.363281 142.519531 C 162.511719 142.519531 163.3125 142.714844 163.804688 143.125 C 164.308594 143.539062 164.566406 144.253906 164.566406 145.25 L 164.566406 148.886719 C 164.566406 149.609375 164.589844 150.105469 164.644531 150.367188 C 164.6875 150.582031 164.765625 150.808594 164.878906 151.050781 Z M 169.96875 151.617188 L 164.53125 151.617188 L 164.453125 151.464844 C 164.269531 151.121094 164.148438 150.789062 164.085938 150.480469 C 164.023438 150.175781 163.996094 149.65625 163.996094 148.886719 L 163.996094 145.25 C 163.996094 144.433594 163.8125 143.863281 163.445312 143.5625 C 163.058594 143.25 162.359375 143.085938 161.363281 143.085938 L 160.039062 143.085938 L 160.039062 151.617188 L 154.820312 151.617188 L 154.820312 131.144531 L 161.996094 131.144531 C 164.441406 131.144531 166.257812 131.539062 167.402344 132.316406 C 168.578125 133.117188 169.175781 134.359375 169.175781 136.003906 L 169.175781 137.230469 C 169.175781 139.140625 168.347656 140.457031 166.714844 141.15625 C 167.5 141.4375 168.089844 141.871094 168.472656 142.445312 C 168.964844 143.191406 169.21875 144.191406 169.21875 145.417969 L 169.21875 148.917969 C 169.21875 149.46875 169.242188 149.921875 169.296875 150.25 C 169.347656 150.558594 169.476562 150.871094 169.675781 151.175781 L 169.96875 151.617188 " fill-opacity="1" fill-rule="nonzero"/><path fill="#0b3988" d="M 175.699219 134.273438 L 170.835938 134.273438 L 170.835938 131.429688 L 185.214844 131.429688 L 185.214844 134.273438 L 180.351562 134.273438 L 180.351562 151.332031 L 175.699219 151.332031 L 175.699219 134.273438 " fill-opacity="1" fill-rule="nonzero"/><path fill="#0b3988" d="M 175.984375 151.050781 L 180.066406 151.050781 L 180.066406 133.988281 L 184.929688 133.988281 L 184.929688 131.710938 L 171.121094 131.710938 L 171.121094 133.988281 L 175.984375 133.988281 Z M 180.636719 151.617188 L 175.414062 151.617188 L 175.414062 134.554688 L 170.550781 134.554688 L 170.550781 131.144531 L 185.5 131.144531 L 185.5 134.554688 L 180.636719 134.554688 L 180.636719 151.617188 " fill-opacity="1" fill-rule="nonzero"/><path fill="#0b3988" d="M 187.457031 131.429688 L 192.109375 131.429688 L 192.109375 151.332031 L 187.457031 151.332031 L 187.457031 131.429688 " fill-opacity="1" fill-rule="nonzero"/><path fill="#0b3988" d="M 187.742188 151.050781 L 191.824219 151.050781 L 191.824219 131.710938 L 187.742188 131.710938 Z M 192.390625 151.617188 L 187.171875 151.617188 L 187.171875 131.144531 L 192.390625 131.144531 L 192.390625 151.617188 " fill-opacity="1" fill-rule="nonzero"/><path fill="#0b3988" d="M 195.574219 131.429688 L 207.882812 131.429688 L 207.882812 134.273438 L 200.230469 134.273438 L 200.230469 139.816406 L 206.234375 139.816406 L 206.234375 142.660156 L 200.230469 142.660156 L 200.230469 151.332031 L 195.574219 151.332031 L 195.574219 131.429688 " fill-opacity="1" fill-rule="nonzero"/><path fill="#0b3988" d="M 195.859375 151.050781 L 199.941406 151.050781 L 199.941406 142.375 L 205.949219 142.375 L 205.949219 140.101562 L 199.941406 140.101562 L 199.941406 133.988281 L 207.597656 133.988281 L 207.597656 131.710938 L 195.859375 131.710938 Z M 200.511719 151.617188 L 195.292969 151.617188 L 195.292969 131.144531 L 208.167969 131.144531 L 208.167969 134.554688 L 200.511719 134.554688 L 200.511719 139.535156 L 206.519531 139.535156 L 206.519531 142.945312 L 200.511719 142.945312 L 200.511719 151.617188 " fill-opacity="1" fill-rule="nonzero"/><path fill="#0b3988" d="M 210.125 131.429688 L 214.777344 131.429688 L 214.777344 151.332031 L 210.125 151.332031 L 210.125 131.429688 " fill-opacity="1" fill-rule="nonzero"/><path fill="#0b3988" d="M 210.410156 151.050781 L 214.492188 151.050781 L 214.492188 131.710938 L 210.410156 131.710938 Z M 215.0625 151.617188 L 209.839844 151.617188 L 209.839844 131.144531 L 215.0625 131.144531 L 215.0625 151.617188 " fill-opacity="1" fill-rule="nonzero"/><path fill="#0b3988" d="M 219.703125 150.339844 C 218.53125 149.484375 217.945312 148.28125 217.945312 146.726562 L 217.945312 136.035156 C 217.945312 134.480469 218.53125 133.277344 219.703125 132.421875 C 220.875 131.570312 222.570312 131.144531 224.800781 131.144531 C 227.027344 131.144531 228.726562 131.570312 229.894531 132.421875 C 231.066406 133.277344 231.652344 134.480469 231.652344 136.035156 L 231.652344 138.140625 L 227.25 138.140625 L 227.25 135.835938 C 227.25 134.605469 226.476562 133.988281 224.925781 133.988281 C 223.375 133.988281 222.601562 134.605469 222.601562 135.835938 L 222.601562 146.957031 C 222.601562 148.167969 223.375 148.773438 224.925781 148.773438 C 226.476562 148.773438 227.25 148.167969 227.25 146.957031 L 227.25 143.914062 L 231.652344 143.914062 L 231.652344 146.726562 C 231.652344 148.28125 231.066406 149.484375 229.894531 150.339844 C 228.726562 151.191406 227.027344 151.617188 224.800781 151.617188 C 222.570312 151.617188 220.875 151.191406 219.703125 150.339844 " fill-opacity="1" fill-rule="nonzero"/><path fill="#0b3988" d="M 224.800781 131.429688 C 222.640625 131.429688 220.984375 131.839844 219.871094 132.652344 C 218.769531 133.457031 218.230469 134.5625 218.230469 136.035156 L 218.230469 146.726562 C 218.230469 148.199219 218.769531 149.304688 219.871094 150.109375 C 220.984375 150.921875 222.640625 151.332031 224.800781 151.332031 C 226.953125 151.332031 228.613281 150.921875 229.726562 150.109375 C 230.828125 149.304688 231.367188 148.199219 231.367188 146.726562 L 231.367188 144.195312 L 227.535156 144.195312 L 227.535156 146.957031 C 227.535156 147.914062 227.082031 149.058594 224.925781 149.058594 C 222.769531 149.058594 222.316406 147.914062 222.316406 146.957031 L 222.316406 135.835938 C 222.316406 134.863281 222.769531 133.703125 224.925781 133.703125 C 227.082031 133.703125 227.535156 134.863281 227.535156 135.835938 L 227.535156 137.855469 L 231.367188 137.855469 L 231.367188 136.035156 C 231.367188 134.5625 230.828125 133.457031 229.726562 132.652344 C 228.613281 131.839844 226.953125 131.429688 224.800781 131.429688 Z M 224.800781 151.902344 C 222.519531 151.902344 220.75 151.453125 219.535156 150.570312 C 218.292969 149.664062 217.664062 148.371094 217.664062 146.726562 L 217.664062 136.035156 C 217.664062 134.390625 218.292969 133.097656 219.535156 132.191406 C 220.75 131.308594 222.519531 130.859375 224.800781 130.859375 C 227.078125 130.859375 228.847656 131.308594 230.0625 132.191406 C 231.304688 133.101562 231.933594 134.390625 231.933594 136.035156 L 231.933594 138.425781 L 226.96875 138.425781 L 226.96875 135.835938 C 226.96875 135.164062 226.757812 134.269531 224.925781 134.269531 C 223.097656 134.269531 222.882812 135.164062 222.882812 135.835938 L 222.882812 146.957031 C 222.882812 147.613281 223.097656 148.488281 224.925781 148.488281 C 226.757812 148.488281 226.96875 147.613281 226.96875 146.957031 L 226.96875 143.628906 L 231.933594 143.628906 L 231.933594 146.726562 C 231.933594 148.371094 231.304688 149.664062 230.0625 150.570312 C 228.847656 151.453125 227.078125 151.902344 224.800781 151.902344 " fill-opacity="1" fill-rule="nonzero"/><path fill="#0b3988" d="M 243.109375 144.734375 L 241.039062 134.898438 L 240.953125 134.898438 L 238.925781 144.734375 Z M 238.035156 131.429688 L 244.335938 131.429688 L 249.160156 151.332031 L 244.507812 151.332031 L 243.660156 147.378906 L 243.660156 147.4375 L 238.375 147.4375 L 237.527344 151.332031 L 233.214844 151.332031 L 238.035156 131.429688 " fill-opacity="1" fill-rule="nonzero"/><path fill="#0b3988" d="M 239.273438 144.453125 L 242.761719 144.453125 L 241 136.085938 Z M 244.738281 151.050781 L 248.796875 151.050781 L 244.113281 131.710938 L 238.257812 131.710938 L 233.574219 151.050781 L 237.300781 151.050781 L 238.144531 147.152344 L 243.375 147.152344 L 243.375 145.023438 L 238.574219 145.023438 L 240.722656 134.613281 L 241.269531 134.613281 L 243.460938 145.023438 L 243.449219 145.023438 Z M 249.519531 151.617188 L 244.277344 151.617188 L 243.445312 147.722656 L 238.605469 147.722656 L 237.757812 151.617188 L 232.851562 151.617188 L 237.8125 131.144531 L 244.5625 131.144531 L 249.519531 151.617188 " fill-opacity="1" fill-rule="nonzero"/><path fill="#0b3988" d="M 253.089844 134.273438 L 248.226562 134.273438 L 248.226562 131.429688 L 262.609375 131.429688 L 262.609375 134.273438 L 257.742188 134.273438 L 257.742188 151.332031 L 253.089844 151.332031 L 253.089844 134.273438 " fill-opacity="1" fill-rule="nonzero"/><path fill="#0b3988" d="M 253.375 151.050781 L 257.460938 151.050781 L 257.460938 133.988281 L 262.320312 133.988281 L 262.320312 131.710938 L 248.511719 131.710938 L 248.511719 133.988281 L 253.375 133.988281 Z M 258.027344 151.617188 L 252.808594 151.617188 L 252.808594 134.554688 L 247.945312 134.554688 L 247.945312 131.144531 L 262.890625 131.144531 L 262.890625 134.554688 L 258.027344 134.554688 L 258.027344 151.617188 " fill-opacity="1" fill-rule="nonzero"/><path fill="#0b3988" d="M 264.847656 131.429688 L 277.535156 131.429688 L 277.535156 134.273438 L 269.5 134.273438 L 269.5 139.535156 L 275.886719 139.535156 L 275.886719 142.375 L 269.5 142.375 L 269.5 148.488281 L 277.535156 148.488281 L 277.535156 151.332031 L 264.847656 151.332031 L 264.847656 131.429688 " fill-opacity="1" fill-rule="nonzero"/><path fill="#0b3988" d="M 265.132812 151.050781 L 277.25 151.050781 L 277.25 148.773438 L 269.214844 148.773438 L 269.214844 142.089844 L 275.601562 142.089844 L 275.601562 139.816406 L 269.214844 139.816406 L 269.214844 133.988281 L 277.25 133.988281 L 277.25 131.710938 L 265.132812 131.710938 Z M 277.820312 151.617188 L 264.566406 151.617188 L 264.566406 131.144531 L 277.820312 131.144531 L 277.820312 134.554688 L 269.785156 134.554688 L 269.785156 139.246094 L 276.171875 139.246094 L 276.171875 142.660156 L 269.785156 142.660156 L 269.785156 148.207031 L 277.820312 148.207031 L 277.820312 151.617188 " fill-opacity="1" fill-rule="nonzero"/></svg>