<svg xmlns="http://www.w3.org/2000/svg" xmlns:xlink="http://www.w3.org/1999/xlink" width="500" zoomAndPan="magnify" viewBox="0 0 375 374.999991" height="500" preserveAspectRatio="xMidYMid meet" version="1.0"><defs><clipPath id="9903b06d59"><path d="M 9 80.160156 L 367 80.160156 L 367 295 L 9 295 Z M 9 80.160156 " clip-rule="nonzero"/></clipPath></defs><g clip-path="url(#9903b06d59)"><path fill="#0b3988" d="M 365.230469 189.546875 L 323.59375 136.011719 C 323.035156 135.285156 322.339844 134.714844 321.515625 134.308594 C 320.691406 133.902344 319.816406 133.695312 318.898438 133.695312 L 265.363281 133.695312 L 265.363281 109.902344 C 265.363281 108.925781 265.316406 107.957031 265.222656 106.984375 C 265.125 106.015625 264.984375 105.054688 264.792969 104.097656 C 264.601562 103.144531 264.367188 102.199219 264.082031 101.269531 C 263.800781 100.335938 263.472656 99.421875 263.101562 98.519531 C 262.726562 97.621094 262.3125 96.742188 261.851562 95.882812 C 261.394531 95.023438 260.894531 94.1875 260.351562 93.378906 C 259.8125 92.570312 259.230469 91.789062 258.613281 91.035156 C 257.996094 90.28125 257.34375 89.558594 256.652344 88.871094 C 255.964844 88.183594 255.242188 87.53125 254.492188 86.910156 C 253.738281 86.292969 252.957031 85.714844 252.144531 85.171875 C 251.335938 84.632812 250.503906 84.132812 249.644531 83.671875 C 248.785156 83.214844 247.90625 82.796875 247.003906 82.425781 C 246.105469 82.050781 245.1875 81.722656 244.257812 81.441406 C 243.324219 81.160156 242.382812 80.921875 241.425781 80.730469 C 240.46875 80.542969 239.507812 80.398438 238.539062 80.304688 C 237.570312 80.207031 236.597656 80.160156 235.625 80.160156 L 39.335938 80.160156 C 38.363281 80.160156 37.390625 80.207031 36.421875 80.304688 C 35.453125 80.398438 34.492188 80.542969 33.535156 80.730469 C 32.578125 80.921875 31.636719 81.160156 30.703125 81.441406 C 29.773438 81.722656 28.855469 82.050781 27.957031 82.425781 C 27.054688 82.796875 26.175781 83.214844 25.316406 83.671875 C 24.457031 84.132812 23.625 84.632812 22.8125 85.171875 C 22.003906 85.714844 21.222656 86.292969 20.46875 86.910156 C 19.71875 87.53125 18.996094 88.183594 18.308594 88.871094 C 17.617188 89.558594 16.964844 90.28125 16.347656 91.035156 C 15.730469 91.789062 15.148438 92.570312 14.609375 93.378906 C 14.066406 94.1875 13.566406 95.023438 13.109375 95.882812 C 12.648438 96.742188 12.234375 97.621094 11.859375 98.519531 C 11.488281 99.421875 11.160156 100.335938 10.878906 101.269531 C 10.59375 102.199219 10.359375 103.144531 10.167969 104.097656 C 9.976562 105.054688 9.835938 106.015625 9.738281 106.984375 C 9.644531 107.957031 9.597656 108.925781 9.597656 109.902344 L 9.597656 234.8125 C 9.597656 235.785156 9.644531 236.757812 9.738281 237.726562 C 9.835938 238.695312 9.976562 239.65625 10.167969 240.613281 C 10.359375 241.566406 10.59375 242.511719 10.878906 243.445312 C 11.160156 244.375 11.488281 245.292969 11.859375 246.191406 C 12.234375 247.09375 12.648438 247.972656 13.109375 248.832031 C 13.566406 249.6875 14.066406 250.523438 14.609375 251.332031 C 15.148438 252.144531 15.730469 252.925781 16.347656 253.679688 C 16.964844 254.429688 17.617188 255.152344 18.308594 255.839844 C 18.996094 256.527344 19.71875 257.183594 20.46875 257.800781 C 21.222656 258.417969 22.003906 258.996094 22.8125 259.539062 C 23.625 260.082031 24.457031 260.582031 25.316406 261.039062 C 26.175781 261.5 27.054688 261.914062 27.957031 262.289062 C 28.855469 262.660156 29.773438 262.988281 30.703125 263.269531 C 31.636719 263.554688 32.578125 263.789062 33.535156 263.980469 C 34.492188 264.167969 35.453125 264.3125 36.421875 264.40625 C 37.390625 264.503906 38.363281 264.550781 39.335938 264.550781 C 39.726562 264.550781 40.113281 264.511719 40.496094 264.4375 C 40.878906 264.359375 41.253906 264.246094 41.613281 264.097656 C 41.972656 263.949219 42.316406 263.765625 42.640625 263.546875 C 42.964844 263.332031 43.265625 263.085938 43.542969 262.808594 C 43.820312 262.53125 44.066406 262.234375 44.28125 261.90625 C 44.5 261.582031 44.683594 261.238281 44.832031 260.878906 C 44.980469 260.519531 45.09375 260.148438 45.171875 259.761719 C 45.246094 259.378906 45.285156 258.992188 45.285156 258.601562 C 45.285156 258.210938 45.246094 257.824219 45.171875 257.441406 C 45.09375 257.058594 44.980469 256.6875 44.832031 256.328125 C 44.683594 255.964844 44.5 255.625 44.28125 255.296875 C 44.066406 254.972656 43.820312 254.671875 43.542969 254.398438 C 43.265625 254.121094 42.964844 253.875 42.640625 253.65625 C 42.316406 253.441406 41.972656 253.257812 41.613281 253.109375 C 41.253906 252.957031 40.878906 252.84375 40.496094 252.769531 C 40.113281 252.691406 39.726562 252.65625 39.335938 252.65625 C 38.753906 252.65625 38.167969 252.625 37.589844 252.570312 C 37.007812 252.511719 36.429688 252.425781 35.855469 252.3125 C 35.28125 252.199219 34.714844 252.054688 34.15625 251.886719 C 33.597656 251.71875 33.046875 251.519531 32.507812 251.296875 C 31.96875 251.074219 31.441406 250.824219 30.925781 250.546875 C 30.410156 250.273438 29.910156 249.972656 29.421875 249.648438 C 28.9375 249.324219 28.46875 248.976562 28.015625 248.605469 C 27.566406 248.234375 27.132812 247.84375 26.71875 247.429688 C 26.304688 247.015625 25.914062 246.582031 25.542969 246.132812 C 25.171875 245.679688 24.824219 245.210938 24.5 244.722656 C 24.175781 244.238281 23.875 243.738281 23.601562 243.222656 C 23.324219 242.707031 23.074219 242.179688 22.851562 241.640625 C 22.628906 241.097656 22.429688 240.550781 22.261719 239.992188 C 22.089844 239.429688 21.949219 238.867188 21.835938 238.292969 C 21.722656 237.71875 21.636719 237.140625 21.578125 236.558594 C 21.523438 235.976562 21.492188 235.394531 21.492188 234.8125 L 21.492188 211.019531 L 253.46875 211.019531 L 253.46875 252.65625 L 133.972656 252.65625 C 133.847656 251.929688 133.703125 251.207031 133.535156 250.488281 C 133.367188 249.769531 133.179688 249.058594 132.964844 248.351562 C 132.753906 247.644531 132.519531 246.945312 132.265625 246.253906 C 132.011719 245.5625 131.734375 244.878906 131.4375 244.203125 C 131.140625 243.53125 130.820312 242.863281 130.480469 242.210938 C 130.144531 241.554688 129.785156 240.910156 129.40625 240.277344 C 129.027344 239.644531 128.628906 239.023438 128.214844 238.417969 C 127.796875 237.808594 127.359375 237.214844 126.90625 236.632812 C 126.453125 236.050781 125.980469 235.484375 125.492188 234.933594 C 125.003906 234.382812 124.496094 233.847656 123.976562 233.324219 C 123.453125 232.804688 122.914062 232.300781 122.363281 231.8125 C 121.808594 231.328125 121.238281 230.855469 120.65625 230.40625 C 120.074219 229.953125 119.480469 229.519531 118.871094 229.105469 C 118.261719 228.691406 117.636719 228.292969 117.003906 227.917969 C 116.371094 227.542969 115.726562 227.183594 115.070312 226.847656 C 114.414062 226.511719 113.746094 226.195312 113.070312 225.902344 C 112.394531 225.605469 111.710938 225.332031 111.019531 225.078125 C 110.328125 224.824219 109.628906 224.59375 108.921875 224.386719 C 108.214844 224.175781 107.5 223.988281 106.78125 223.824219 C 106.0625 223.65625 105.339844 223.515625 104.613281 223.394531 C 103.886719 223.273438 103.15625 223.175781 102.421875 223.101562 C 101.6875 223.027344 100.953125 222.972656 100.214844 222.945312 C 99.480469 222.914062 98.742188 222.90625 98.003906 222.921875 C 97.269531 222.9375 96.53125 222.976562 95.796875 223.039062 C 95.0625 223.101562 94.332031 223.1875 93.601562 223.292969 C 92.871094 223.398438 92.144531 223.53125 91.425781 223.679688 C 90.703125 223.832031 89.988281 224.007812 89.277344 224.203125 C 88.566406 224.398438 87.859375 224.617188 87.164062 224.859375 C 86.46875 225.097656 85.777344 225.359375 85.097656 225.644531 C 84.414062 225.925781 83.746094 226.230469 83.082031 226.554688 C 82.421875 226.878906 81.769531 227.222656 81.128906 227.585938 C 80.488281 227.953125 79.859375 228.335938 79.242188 228.738281 C 78.625 229.144531 78.019531 229.566406 77.429688 230.007812 C 76.839844 230.449219 76.261719 230.90625 75.699219 231.382812 C 75.136719 231.859375 74.589844 232.355469 74.058594 232.867188 C 73.527344 233.375 73.011719 233.902344 72.511719 234.445312 C 72.011719 234.988281 71.53125 235.546875 71.066406 236.117188 C 70.601562 236.691406 70.15625 237.277344 69.726562 237.878906 C 69.300781 238.476562 68.890625 239.089844 68.5 239.71875 C 68.109375 240.34375 67.738281 240.980469 67.390625 241.628906 C 67.039062 242.277344 66.707031 242.9375 66.398438 243.605469 C 66.089844 244.273438 65.800781 244.953125 65.53125 245.640625 C 65.261719 246.324219 65.015625 247.019531 64.792969 247.722656 C 64.566406 248.425781 64.363281 249.132812 64.183594 249.847656 C 64.003906 250.5625 63.84375 251.28125 63.707031 252.007812 C 63.570312 252.730469 63.457031 253.460938 63.367188 254.191406 C 63.277344 254.921875 63.207031 255.65625 63.160156 256.394531 C 63.117188 257.128906 63.09375 257.867188 63.09375 258.601562 C 63.09375 259.339844 63.117188 260.078125 63.160156 260.8125 C 63.207031 261.550781 63.277344 262.28125 63.367188 263.015625 C 63.457031 263.746094 63.570312 264.472656 63.707031 265.199219 C 63.84375 265.921875 64.003906 266.644531 64.183594 267.359375 C 64.363281 268.074219 64.566406 268.78125 64.792969 269.484375 C 65.015625 270.1875 65.261719 270.878906 65.53125 271.566406 C 65.800781 272.253906 66.089844 272.933594 66.398438 273.601562 C 66.707031 274.269531 67.039062 274.929688 67.390625 275.578125 C 67.738281 276.226562 68.109375 276.863281 68.5 277.488281 C 68.890625 278.113281 69.300781 278.726562 69.726562 279.328125 C 70.15625 279.929688 70.601562 280.515625 71.066406 281.085938 C 71.53125 281.660156 72.011719 282.21875 72.511719 282.761719 C 73.011719 283.304688 73.527344 283.828125 74.058594 284.339844 C 74.589844 284.851562 75.136719 285.34375 75.699219 285.824219 C 76.261719 286.300781 76.839844 286.757812 77.429688 287.199219 C 78.019531 287.640625 78.625 288.0625 79.242188 288.464844 C 79.859375 288.871094 80.488281 289.253906 81.128906 289.621094 C 81.769531 289.984375 82.421875 290.328125 83.082031 290.652344 C 83.746094 290.976562 84.414062 291.28125 85.097656 291.5625 C 85.777344 291.847656 86.46875 292.109375 87.164062 292.347656 C 87.863281 292.585938 88.566406 292.804688 89.277344 293.003906 C 89.988281 293.199219 90.703125 293.371094 91.425781 293.523438 C 92.144531 293.675781 92.871094 293.804688 93.601562 293.914062 C 94.332031 294.019531 95.0625 294.105469 95.796875 294.167969 C 96.53125 294.226562 97.269531 294.265625 98.003906 294.285156 C 98.742188 294.300781 99.480469 294.292969 100.214844 294.261719 C 100.953125 294.234375 101.6875 294.179688 102.421875 294.105469 C 103.15625 294.03125 103.886719 293.933594 104.613281 293.8125 C 105.339844 293.691406 106.0625 293.546875 106.78125 293.382812 C 107.5 293.21875 108.214844 293.03125 108.921875 292.820312 C 109.628906 292.613281 110.328125 292.378906 111.019531 292.128906 C 111.710938 291.875 112.394531 291.601562 113.070312 291.304688 C 113.746094 291.011719 114.414062 290.695312 115.070312 290.359375 C 115.726562 290.023438 116.371094 289.664062 117.003906 289.289062 C 117.636719 288.914062 118.261719 288.515625 118.871094 288.101562 C 119.480469 287.6875 120.074219 287.253906 120.65625 286.800781 C 121.238281 286.347656 121.808594 285.878906 122.363281 285.390625 C 122.914062 284.90625 123.453125 284.402344 123.976562 283.878906 C 124.496094 283.359375 125.003906 282.824219 125.492188 282.273438 C 125.980469 281.71875 126.453125 281.152344 126.90625 280.574219 C 127.359375 279.992188 127.796875 279.398438 128.214844 278.789062 C 128.628906 278.179688 129.027344 277.5625 129.40625 276.929688 C 129.785156 276.296875 130.144531 275.652344 130.480469 274.996094 C 130.820312 274.339844 131.140625 273.675781 131.4375 273.003906 C 131.734375 272.328125 132.011719 271.644531 132.265625 270.953125 C 132.519531 270.261719 132.753906 269.5625 132.964844 268.855469 C 133.179688 268.148438 133.367188 267.4375 133.535156 266.71875 C 133.703125 266 133.847656 265.277344 133.972656 264.550781 L 271.847656 264.550781 C 272.027344 265.574219 272.25 266.589844 272.519531 267.59375 C 272.785156 268.597656 273.097656 269.589844 273.453125 270.566406 C 273.808594 271.542969 274.203125 272.503906 274.640625 273.445312 C 275.082031 274.390625 275.558594 275.3125 276.078125 276.210938 C 276.597656 277.113281 277.15625 277.988281 277.75 278.839844 C 278.347656 279.691406 278.976562 280.515625 279.644531 281.3125 C 280.3125 282.109375 281.015625 282.878906 281.75 283.613281 C 282.484375 284.347656 283.25 285.050781 284.046875 285.71875 C 284.839844 286.386719 285.664062 287.019531 286.515625 287.617188 C 287.367188 288.214844 288.242188 288.773438 289.144531 289.292969 C 290.042969 289.8125 290.964844 290.292969 291.90625 290.734375 C 292.847656 291.171875 293.808594 291.570312 294.785156 291.925781 C 295.761719 292.28125 296.753906 292.59375 297.757812 292.863281 C 298.761719 293.132812 299.773438 293.359375 300.796875 293.539062 C 301.820312 293.71875 302.851562 293.855469 303.886719 293.945312 C 304.921875 294.035156 305.960938 294.082031 307 294.082031 C 308.039062 294.082031 309.078125 294.035156 310.113281 293.945312 C 311.148438 293.855469 312.179688 293.71875 313.203125 293.539062 C 314.226562 293.359375 315.242188 293.132812 316.246094 292.863281 C 317.25 292.59375 318.238281 292.28125 319.214844 291.925781 C 320.191406 291.570312 321.152344 291.171875 322.09375 290.734375 C 323.035156 290.292969 323.957031 289.8125 324.859375 289.292969 C 325.757812 288.773438 326.632812 288.214844 327.484375 287.617188 C 328.335938 287.019531 329.160156 286.386719 329.957031 285.71875 C 330.75 285.050781 331.515625 284.347656 332.25 283.613281 C 332.988281 282.878906 333.6875 282.109375 334.355469 281.3125 C 335.023438 280.515625 335.65625 279.691406 336.25 278.839844 C 336.847656 277.988281 337.402344 277.113281 337.921875 276.210938 C 338.441406 275.3125 338.921875 274.390625 339.359375 273.445312 C 339.796875 272.503906 340.195312 271.542969 340.546875 270.566406 C 340.902344 269.589844 341.214844 268.597656 341.484375 267.59375 C 341.75 266.589844 341.972656 265.574219 342.152344 264.550781 L 360.53125 264.550781 C 360.921875 264.550781 361.308594 264.511719 361.695312 264.4375 C 362.078125 264.359375 362.449219 264.246094 362.808594 264.097656 C 363.171875 263.949219 363.511719 263.765625 363.835938 263.546875 C 364.164062 263.332031 364.464844 263.085938 364.738281 262.808594 C 365.015625 262.53125 365.261719 262.234375 365.480469 261.90625 C 365.695312 261.582031 365.878906 261.238281 366.027344 260.878906 C 366.179688 260.519531 366.289062 260.148438 366.367188 259.761719 C 366.441406 259.378906 366.480469 258.992188 366.480469 258.601562 L 366.480469 193.175781 C 366.476562 191.824219 366.0625 190.613281 365.230469 189.546875 Z M 21.492188 199.121094 L 21.492188 109.902344 C 21.492188 109.316406 21.523438 108.734375 21.578125 108.152344 C 21.636719 107.570312 21.722656 106.992188 21.835938 106.421875 C 21.949219 105.847656 22.089844 105.28125 22.261719 104.722656 C 22.429688 104.164062 22.628906 103.613281 22.851562 103.074219 C 23.074219 102.53125 23.324219 102.003906 23.601562 101.488281 C 23.875 100.972656 24.175781 100.472656 24.5 99.988281 C 24.824219 99.5 25.171875 99.03125 25.542969 98.582031 C 25.914062 98.128906 26.304688 97.695312 26.71875 97.285156 C 27.132812 96.871094 27.566406 96.476562 28.015625 96.109375 C 28.46875 95.738281 28.9375 95.390625 29.421875 95.0625 C 29.910156 94.738281 30.410156 94.441406 30.925781 94.164062 C 31.441406 93.886719 31.96875 93.640625 32.507812 93.414062 C 33.046875 93.191406 33.597656 92.996094 34.15625 92.824219 C 34.714844 92.65625 35.28125 92.515625 35.855469 92.398438 C 36.429688 92.285156 37.007812 92.199219 37.589844 92.144531 C 38.167969 92.085938 38.753906 92.058594 39.335938 92.058594 L 235.625 92.058594 C 236.207031 92.058594 236.792969 92.085938 237.371094 92.144531 C 237.953125 92.199219 238.53125 92.285156 239.105469 92.398438 C 239.679688 92.515625 240.246094 92.65625 240.804688 92.824219 C 241.363281 92.996094 241.914062 93.191406 242.453125 93.414062 C 242.992188 93.640625 243.519531 93.886719 244.035156 94.164062 C 244.550781 94.441406 245.050781 94.738281 245.539062 95.0625 C 246.023438 95.390625 246.492188 95.738281 246.945312 96.109375 C 247.394531 96.476562 247.828125 96.871094 248.242188 97.285156 C 248.65625 97.695312 249.046875 98.128906 249.417969 98.582031 C 249.789062 99.03125 250.136719 99.5 250.460938 99.988281 C 250.785156 100.472656 251.085938 100.972656 251.359375 101.488281 C 251.636719 102.003906 251.886719 102.53125 252.109375 103.074219 C 252.332031 103.613281 252.53125 104.164062 252.699219 104.722656 C 252.867188 105.28125 253.011719 105.847656 253.125 106.421875 C 253.238281 106.992188 253.324219 107.570312 253.382812 108.152344 C 253.4375 108.734375 253.46875 109.316406 253.46875 109.902344 L 253.46875 199.121094 Z M 98.816406 282.394531 C 98.039062 282.394531 97.261719 282.355469 96.484375 282.28125 C 95.710938 282.203125 94.941406 282.089844 94.175781 281.9375 C 93.410156 281.785156 92.65625 281.597656 91.910156 281.371094 C 91.164062 281.144531 90.433594 280.882812 89.714844 280.585938 C 88.992188 280.285156 88.289062 279.953125 87.601562 279.585938 C 86.914062 279.21875 86.246094 278.820312 85.597656 278.386719 C 84.953125 277.953125 84.328125 277.488281 83.722656 276.996094 C 83.121094 276.5 82.546875 275.976562 81.996094 275.425781 C 81.441406 274.875 80.921875 274.300781 80.425781 273.695312 C 79.933594 273.09375 79.46875 272.46875 79.035156 271.820312 C 78.601562 271.171875 78.203125 270.507812 77.835938 269.820312 C 77.46875 269.132812 77.136719 268.429688 76.835938 267.707031 C 76.539062 266.988281 76.277344 266.253906 76.050781 265.507812 C 75.824219 264.765625 75.632812 264.007812 75.484375 263.246094 C 75.332031 262.480469 75.214844 261.710938 75.140625 260.933594 C 75.0625 260.160156 75.027344 259.382812 75.027344 258.601562 C 75.027344 257.824219 75.0625 257.046875 75.140625 256.269531 C 75.214844 255.496094 75.332031 254.726562 75.484375 253.960938 C 75.632812 253.195312 75.824219 252.441406 76.050781 251.695312 C 76.277344 250.949219 76.539062 250.21875 76.835938 249.5 C 77.136719 248.777344 77.46875 248.074219 77.835938 247.386719 C 78.203125 246.699219 78.601562 246.03125 79.035156 245.386719 C 79.46875 244.738281 79.933594 244.113281 80.425781 243.507812 C 80.921875 242.90625 81.441406 242.332031 81.996094 241.78125 C 82.546875 241.226562 83.121094 240.707031 83.722656 240.210938 C 84.328125 239.71875 84.953125 239.253906 85.597656 238.820312 C 86.246094 238.386719 86.914062 237.988281 87.601562 237.621094 C 88.289062 237.253906 88.992188 236.921875 89.714844 236.621094 C 90.433594 236.324219 91.164062 236.0625 91.910156 235.835938 C 92.65625 235.609375 93.410156 235.421875 94.175781 235.269531 C 94.941406 235.117188 95.710938 235 96.484375 234.925781 C 97.261719 234.847656 98.039062 234.8125 98.816406 234.8125 C 99.597656 234.8125 100.375 234.847656 101.148438 234.925781 C 101.925781 235 102.695312 235.117188 103.460938 235.269531 C 104.222656 235.421875 104.980469 235.609375 105.722656 235.835938 C 106.46875 236.0625 107.203125 236.324219 107.921875 236.621094 C 108.644531 236.921875 109.347656 237.253906 110.035156 237.621094 C 110.71875 237.988281 111.386719 238.386719 112.035156 238.820312 C 112.683594 239.253906 113.308594 239.71875 113.910156 240.210938 C 114.515625 240.707031 115.089844 241.226562 115.640625 241.78125 C 116.191406 242.332031 116.714844 242.90625 117.210938 243.507812 C 117.703125 244.113281 118.167969 244.738281 118.601562 245.386719 C 119.035156 246.03125 119.433594 246.699219 119.800781 247.386719 C 120.167969 248.074219 120.5 248.777344 120.800781 249.5 C 121.097656 250.21875 121.359375 250.949219 121.585938 251.695312 C 121.8125 252.441406 122 253.195312 122.152344 253.960938 C 122.304688 254.726562 122.417969 255.496094 122.496094 256.269531 C 122.570312 257.046875 122.609375 257.824219 122.609375 258.601562 C 122.609375 259.382812 122.570312 260.160156 122.496094 260.933594 C 122.417969 261.710938 122.304688 262.480469 122.152344 263.246094 C 122 264.007812 121.8125 264.765625 121.585938 265.507812 C 121.359375 266.253906 121.097656 266.988281 120.800781 267.707031 C 120.5 268.429688 120.167969 269.132812 119.800781 269.820312 C 119.433594 270.507812 119.035156 271.171875 118.601562 271.820312 C 118.167969 272.46875 117.703125 273.09375 117.210938 273.695312 C 116.714844 274.300781 116.191406 274.875 115.640625 275.425781 C 115.089844 275.976562 114.515625 276.5 113.910156 276.996094 C 113.308594 277.488281 112.683594 277.953125 112.035156 278.386719 C 111.386719 278.820312 110.71875 279.21875 110.035156 279.585938 C 109.347656 279.953125 108.644531 280.285156 107.921875 280.585938 C 107.203125 280.882812 106.46875 281.144531 105.722656 281.371094 C 104.980469 281.597656 104.222656 281.785156 103.460938 281.9375 C 102.695312 282.089844 101.925781 282.203125 101.148438 282.28125 C 100.375 282.355469 99.597656 282.394531 98.816406 282.394531 Z M 307 282.394531 C 306.222656 282.394531 305.445312 282.355469 304.667969 282.28125 C 303.894531 282.203125 303.125 282.089844 302.359375 281.9375 C 301.59375 281.785156 300.839844 281.597656 300.09375 281.371094 C 299.347656 281.144531 298.617188 280.882812 297.894531 280.585938 C 297.175781 280.285156 296.472656 279.953125 295.785156 279.585938 C 295.097656 279.21875 294.429688 278.820312 293.78125 278.386719 C 293.132812 277.953125 292.507812 277.488281 291.90625 276.996094 C 291.304688 276.5 290.726562 275.976562 290.175781 275.425781 C 289.625 274.875 289.101562 274.300781 288.609375 273.695312 C 288.113281 273.09375 287.652344 272.46875 287.21875 271.820312 C 286.785156 271.171875 286.386719 270.507812 286.015625 269.820312 C 285.648438 269.132812 285.316406 268.429688 285.019531 267.707031 C 284.722656 266.988281 284.457031 266.253906 284.234375 265.507812 C 284.007812 264.765625 283.816406 264.007812 283.664062 263.246094 C 283.511719 262.480469 283.398438 261.710938 283.324219 260.933594 C 283.246094 260.160156 283.207031 259.382812 283.207031 258.601562 C 283.207031 257.824219 283.246094 257.046875 283.324219 256.269531 C 283.398438 255.496094 283.511719 254.726562 283.664062 253.960938 C 283.816406 253.195312 284.007812 252.441406 284.234375 251.695312 C 284.457031 250.949219 284.722656 250.21875 285.019531 249.5 C 285.316406 248.777344 285.648438 248.074219 286.015625 247.386719 C 286.386719 246.699219 286.785156 246.03125 287.21875 245.386719 C 287.652344 244.738281 288.113281 244.113281 288.609375 243.507812 C 289.101562 242.90625 289.625 242.332031 290.175781 241.78125 C 290.726562 241.226562 291.304688 240.707031 291.90625 240.210938 C 292.507812 239.71875 293.132812 239.253906 293.78125 238.820312 C 294.429688 238.386719 295.097656 237.988281 295.785156 237.621094 C 296.472656 237.253906 297.175781 236.921875 297.894531 236.621094 C 298.617188 236.324219 299.347656 236.0625 300.09375 235.835938 C 300.839844 235.609375 301.59375 235.421875 302.359375 235.269531 C 303.125 235.117188 303.894531 235 304.667969 234.925781 C 305.445312 234.847656 306.222656 234.8125 307 234.8125 C 307.78125 234.8125 308.558594 234.847656 309.332031 234.925781 C 310.109375 235 310.878906 235.117188 311.640625 235.269531 C 312.40625 235.421875 313.160156 235.609375 313.90625 235.835938 C 314.652344 236.0625 315.386719 236.324219 316.105469 236.621094 C 316.824219 236.921875 317.527344 237.253906 318.214844 237.621094 C 318.902344 237.988281 319.570312 238.386719 320.21875 238.820312 C 320.867188 239.253906 321.492188 239.71875 322.09375 240.210938 C 322.695312 240.707031 323.273438 241.226562 323.824219 241.78125 C 324.375 242.332031 324.898438 242.90625 325.390625 243.507812 C 325.886719 244.113281 326.351562 244.738281 326.78125 245.386719 C 327.214844 246.03125 327.617188 246.699219 327.984375 247.386719 C 328.351562 248.074219 328.683594 248.777344 328.980469 249.5 C 329.28125 250.21875 329.542969 250.949219 329.769531 251.695312 C 329.996094 252.441406 330.183594 253.195312 330.335938 253.960938 C 330.488281 254.726562 330.601562 255.496094 330.679688 256.269531 C 330.753906 257.046875 330.792969 257.824219 330.792969 258.601562 C 330.792969 259.382812 330.753906 260.160156 330.679688 260.933594 C 330.601562 261.710938 330.488281 262.480469 330.335938 263.246094 C 330.183594 264.007812 329.996094 264.765625 329.769531 265.507812 C 329.542969 266.253906 329.28125 266.988281 328.980469 267.707031 C 328.683594 268.429688 328.351562 269.132812 327.984375 269.820312 C 327.617188 270.507812 327.214844 271.171875 326.78125 271.820312 C 326.351562 272.46875 325.886719 273.09375 325.390625 273.695312 C 324.898438 274.300781 324.375 274.875 323.824219 275.425781 C 323.273438 275.976562 322.695312 276.5 322.09375 276.996094 C 321.492188 277.488281 320.867188 277.953125 320.21875 278.386719 C 319.570312 278.820312 318.902344 279.21875 318.214844 279.585938 C 317.527344 279.953125 316.824219 280.285156 316.105469 280.585938 C 315.386719 280.882812 314.652344 281.144531 313.90625 281.371094 C 313.160156 281.597656 312.40625 281.785156 311.640625 281.9375 C 310.878906 282.089844 310.109375 282.203125 309.332031 282.28125 C 308.558594 282.355469 307.78125 282.394531 307 282.394531 Z M 354.585938 252.65625 L 342.152344 252.65625 C 341.972656 251.632812 341.75 250.617188 341.484375 249.613281 C 341.214844 248.609375 340.902344 247.617188 340.546875 246.640625 C 340.195312 245.664062 339.796875 244.703125 339.359375 243.761719 C 338.921875 242.816406 338.441406 241.894531 337.921875 240.996094 C 337.402344 240.09375 336.847656 239.21875 336.25 238.367188 C 335.65625 237.511719 335.023438 236.6875 334.355469 235.890625 C 333.6875 235.09375 332.988281 234.328125 332.25 233.59375 C 331.515625 232.859375 330.75 232.15625 329.957031 231.488281 C 329.160156 230.820312 328.335938 230.1875 327.484375 229.589844 C 326.632812 228.992188 325.757812 228.433594 324.859375 227.914062 C 323.957031 227.394531 323.035156 226.914062 322.09375 226.472656 C 321.152344 226.035156 320.191406 225.636719 319.214844 225.28125 C 318.238281 224.925781 317.25 224.613281 316.246094 224.34375 C 315.242188 224.074219 314.226562 223.847656 313.203125 223.667969 C 312.179688 223.488281 311.148438 223.351562 310.113281 223.261719 C 309.078125 223.171875 308.039062 223.125 307 223.125 C 305.960938 223.125 304.921875 223.171875 303.886719 223.261719 C 302.851562 223.351562 301.820312 223.488281 300.796875 223.667969 C 299.773438 223.847656 298.761719 224.074219 297.757812 224.34375 C 296.753906 224.613281 295.761719 224.925781 294.785156 225.28125 C 293.808594 225.636719 292.847656 226.035156 291.90625 226.472656 C 290.964844 226.914062 290.042969 227.394531 289.144531 227.914062 C 288.242188 228.433594 287.367188 228.992188 286.515625 229.589844 C 285.664062 230.1875 284.839844 230.820312 284.046875 231.488281 C 283.25 232.15625 282.484375 232.859375 281.75 233.59375 C 281.015625 234.328125 280.3125 235.09375 279.644531 235.890625 C 278.976562 236.6875 278.347656 237.511719 277.75 238.367188 C 277.15625 239.21875 276.597656 240.09375 276.078125 240.996094 C 275.558594 241.894531 275.082031 242.816406 274.640625 243.761719 C 274.203125 244.703125 273.808594 245.664062 273.453125 246.640625 C 273.097656 247.617188 272.785156 248.609375 272.519531 249.613281 C 272.25 250.617188 272.027344 251.632812 271.847656 252.65625 L 265.363281 252.65625 L 265.363281 145.589844 L 315.980469 145.589844 L 354.585938 195.195312 Z M 354.585938 252.65625 " fill-opacity="1" fill-rule="nonzero"/></g><path fill="#0b3988" d="M 307 157.484375 L 283.207031 157.484375 C 282.816406 157.484375 282.429688 157.523438 282.046875 157.601562 C 281.664062 157.675781 281.292969 157.789062 280.933594 157.9375 C 280.570312 158.089844 280.226562 158.269531 279.902344 158.488281 C 279.578125 158.707031 279.277344 158.953125 279.003906 159.226562 C 278.726562 159.503906 278.480469 159.804688 278.261719 160.128906 C 278.046875 160.453125 277.863281 160.796875 277.714844 161.15625 C 277.5625 161.519531 277.449219 161.890625 277.375 162.273438 C 277.296875 162.65625 277.261719 163.042969 277.261719 163.433594 L 277.261719 199.121094 C 277.261719 199.511719 277.296875 199.898438 277.375 200.28125 C 277.449219 200.664062 277.5625 201.039062 277.710938 201.398438 C 277.863281 201.757812 278.046875 202.101562 278.261719 202.425781 C 278.480469 202.75 278.726562 203.050781 279.003906 203.328125 C 279.277344 203.605469 279.578125 203.851562 279.902344 204.066406 C 280.226562 204.285156 280.570312 204.46875 280.933594 204.617188 C 281.292969 204.765625 281.664062 204.878906 282.046875 204.957031 C 282.429688 205.03125 282.816406 205.070312 283.207031 205.070312 L 336.742188 205.070312 C 337.304688 205.070312 337.859375 204.992188 338.402344 204.835938 C 338.949219 204.679688 339.457031 204.449219 339.9375 204.144531 C 340.414062 203.84375 340.839844 203.480469 341.214844 203.054688 C 341.585938 202.628906 341.894531 202.164062 342.132812 201.648438 C 342.375 201.136719 342.539062 200.601562 342.625 200.042969 C 342.714844 199.484375 342.722656 198.925781 342.648438 198.363281 C 342.578125 197.804688 342.429688 197.265625 342.203125 196.746094 C 341.976562 196.226562 341.683594 195.75 341.320312 195.316406 L 311.582031 159.628906 C 311.015625 158.949219 310.332031 158.421875 309.53125 158.046875 C 308.726562 157.671875 307.886719 157.484375 307 157.484375 Z M 289.15625 193.175781 L 289.15625 169.382812 L 304.203125 169.382812 L 324.011719 193.175781 Z M 289.15625 193.175781 " fill-opacity="1" fill-rule="nonzero"/><path fill="#0b3988" d="M 140.453125 109.902344 L 134.507812 109.902344 C 133.726562 109.902344 132.949219 109.941406 132.175781 110.015625 C 131.398438 110.09375 130.628906 110.207031 129.863281 110.359375 C 129.101562 110.511719 128.34375 110.699219 127.601562 110.925781 C 126.855469 111.152344 126.121094 111.414062 125.402344 111.710938 C 124.679688 112.011719 123.976562 112.34375 123.289062 112.710938 C 122.601562 113.078125 121.9375 113.476562 121.289062 113.910156 C 120.640625 114.34375 120.015625 114.808594 119.414062 115.300781 C 118.808594 115.796875 118.234375 116.320312 117.683594 116.871094 C 117.132812 117.421875 116.609375 117.996094 116.113281 118.601562 C 115.621094 119.203125 115.15625 119.828125 114.722656 120.476562 C 114.289062 121.125 113.890625 121.789062 113.523438 122.476562 C 113.15625 123.164062 112.824219 123.867188 112.523438 124.589844 C 112.226562 125.308594 111.964844 126.042969 111.738281 126.785156 C 111.511719 127.53125 111.324219 128.289062 111.171875 129.050781 C 111.019531 129.816406 110.90625 130.585938 110.828125 131.363281 C 110.753906 132.136719 110.714844 132.914062 110.714844 133.695312 L 110.714844 157.484375 C 110.714844 158.265625 110.753906 159.042969 110.828125 159.816406 C 110.90625 160.59375 111.019531 161.363281 111.171875 162.128906 C 111.324219 162.890625 111.511719 163.648438 111.738281 164.390625 C 111.964844 165.136719 112.226562 165.871094 112.523438 166.589844 C 112.824219 167.3125 113.15625 168.015625 113.523438 168.703125 C 113.890625 169.390625 114.289062 170.054688 114.722656 170.703125 C 115.15625 171.351562 115.621094 171.976562 116.113281 172.578125 C 116.609375 173.183594 117.132812 173.757812 117.683594 174.308594 C 118.234375 174.859375 118.808594 175.382812 119.414062 175.878906 C 120.015625 176.371094 120.640625 176.835938 121.289062 177.269531 C 121.9375 177.703125 122.601562 178.101562 123.289062 178.46875 C 123.976562 178.835938 124.679688 179.167969 125.402344 179.46875 C 126.121094 179.765625 126.855469 180.027344 127.601562 180.253906 C 128.34375 180.480469 129.101562 180.667969 129.863281 180.820312 C 130.628906 180.972656 131.398438 181.085938 132.175781 181.164062 C 132.949219 181.238281 133.726562 181.277344 134.507812 181.277344 L 140.453125 181.277344 C 141.234375 181.277344 142.011719 181.238281 142.785156 181.164062 C 143.5625 181.085938 144.332031 180.972656 145.097656 180.820312 C 145.859375 180.667969 146.617188 180.480469 147.359375 180.253906 C 148.105469 180.027344 148.839844 179.765625 149.558594 179.46875 C 150.277344 179.167969 150.984375 178.835938 151.671875 178.46875 C 152.355469 178.101562 153.023438 177.703125 153.671875 177.269531 C 154.320312 176.835938 154.945312 176.371094 155.546875 175.878906 C 156.152344 175.382812 156.726562 174.859375 157.277344 174.308594 C 157.828125 173.757812 158.351562 173.183594 158.847656 172.578125 C 159.339844 171.976562 159.804688 171.351562 160.238281 170.703125 C 160.667969 170.054688 161.070312 169.390625 161.4375 168.703125 C 161.804688 168.015625 162.136719 167.3125 162.4375 166.589844 C 162.734375 165.871094 162.996094 165.136719 163.222656 164.390625 C 163.449219 163.648438 163.636719 162.890625 163.789062 162.128906 C 163.941406 161.363281 164.054688 160.59375 164.132812 159.816406 C 164.207031 159.042969 164.246094 158.265625 164.246094 157.484375 L 164.246094 133.695312 C 164.246094 132.914062 164.207031 132.136719 164.132812 131.363281 C 164.054688 130.585938 163.941406 129.816406 163.789062 129.050781 C 163.636719 128.289062 163.449219 127.53125 163.222656 126.785156 C 162.996094 126.042969 162.734375 125.308594 162.4375 124.589844 C 162.136719 123.867188 161.804688 123.164062 161.4375 122.476562 C 161.070312 121.789062 160.667969 121.125 160.238281 120.476562 C 159.804688 119.828125 159.339844 119.203125 158.847656 118.601562 C 158.351562 117.996094 157.828125 117.421875 157.277344 116.871094 C 156.726562 116.320312 156.152344 115.796875 155.546875 115.300781 C 154.945312 114.808594 154.320312 114.34375 153.671875 113.910156 C 153.023438 113.476562 152.355469 113.078125 151.671875 112.710938 C 150.984375 112.34375 150.277344 112.011719 149.558594 111.710938 C 148.839844 111.414062 148.105469 111.152344 147.359375 110.925781 C 146.617188 110.699219 145.859375 110.511719 145.097656 110.359375 C 144.332031 110.207031 143.5625 110.09375 142.785156 110.015625 C 142.011719 109.941406 141.234375 109.902344 140.453125 109.902344 Z M 152.351562 157.484375 C 152.351562 158.265625 152.273438 159.039062 152.121094 159.808594 C 151.96875 160.574219 151.742188 161.316406 151.445312 162.039062 C 151.144531 162.761719 150.78125 163.445312 150.34375 164.09375 C 149.910156 164.746094 149.417969 165.34375 148.867188 165.898438 C 148.3125 166.449219 147.714844 166.941406 147.0625 167.378906 C 146.414062 167.8125 145.726562 168.175781 145.007812 168.476562 C 144.285156 168.777344 143.542969 169 142.773438 169.152344 C 142.007812 169.304688 141.234375 169.382812 140.453125 169.382812 L 134.507812 169.382812 C 133.726562 169.382812 132.953125 169.304688 132.183594 169.152344 C 131.417969 169 130.675781 168.777344 129.953125 168.476562 C 129.230469 168.175781 128.546875 167.8125 127.898438 167.378906 C 127.246094 166.941406 126.648438 166.449219 126.09375 165.898438 C 125.542969 165.34375 125.050781 164.746094 124.613281 164.09375 C 124.179688 163.445312 123.816406 162.761719 123.515625 162.039062 C 123.214844 161.316406 122.992188 160.574219 122.839844 159.808594 C 122.6875 159.039062 122.609375 158.265625 122.609375 157.484375 L 122.609375 133.695312 C 122.609375 132.914062 122.6875 132.140625 122.839844 131.371094 C 122.992188 130.605469 123.214844 129.863281 123.515625 129.140625 C 123.816406 128.417969 124.179688 127.734375 124.613281 127.085938 C 125.050781 126.433594 125.542969 125.835938 126.09375 125.28125 C 126.648438 124.730469 127.246094 124.234375 127.898438 123.800781 C 128.546875 123.367188 129.230469 123 129.953125 122.703125 C 130.675781 122.402344 131.417969 122.179688 132.183594 122.027344 C 132.953125 121.875 133.726562 121.796875 134.507812 121.796875 L 140.453125 121.796875 C 141.234375 121.796875 142.007812 121.875 142.773438 122.027344 C 143.542969 122.179688 144.285156 122.402344 145.007812 122.703125 C 145.726562 123 146.414062 123.367188 147.0625 123.800781 C 147.714844 124.234375 148.3125 124.730469 148.867188 125.28125 C 149.417969 125.835938 149.910156 126.433594 150.34375 127.085938 C 150.78125 127.734375 151.144531 128.417969 151.445312 129.140625 C 151.742188 129.863281 151.96875 130.605469 152.121094 131.371094 C 152.273438 132.140625 152.351562 132.914062 152.351562 133.695312 Z M 152.351562 157.484375 " fill-opacity="1" fill-rule="nonzero"/><path fill="#0b3988" d="M 199.933594 109.902344 L 182.089844 109.902344 C 181.699219 109.902344 181.3125 109.9375 180.929688 110.015625 C 180.546875 110.089844 180.175781 110.203125 179.816406 110.355469 C 179.453125 110.503906 179.109375 110.6875 178.785156 110.902344 C 178.460938 111.121094 178.160156 111.367188 177.886719 111.644531 C 177.609375 111.917969 177.363281 112.21875 177.144531 112.542969 C 176.929688 112.871094 176.746094 113.210938 176.59375 113.574219 C 176.445312 113.933594 176.332031 114.304688 176.257812 114.6875 C 176.179688 115.070312 176.144531 115.457031 176.144531 115.847656 L 176.144531 175.332031 C 176.144531 175.71875 176.179688 176.109375 176.257812 176.492188 C 176.332031 176.875 176.445312 177.246094 176.59375 177.605469 C 176.746094 177.96875 176.929688 178.308594 177.144531 178.632812 C 177.363281 178.960938 177.609375 179.261719 177.886719 179.535156 C 178.160156 179.8125 178.460938 180.058594 178.785156 180.277344 C 179.109375 180.492188 179.453125 180.675781 179.816406 180.824219 C 180.175781 180.976562 180.546875 181.085938 180.929688 181.164062 C 181.3125 181.238281 181.699219 181.277344 182.089844 181.277344 L 199.933594 181.277344 C 200.910156 181.277344 201.882812 181.230469 202.851562 181.136719 C 203.820312 181.039062 204.78125 180.898438 205.738281 180.707031 C 206.691406 180.515625 207.636719 180.28125 208.566406 179.996094 C 209.5 179.714844 210.417969 179.386719 211.316406 179.015625 C 212.214844 178.640625 213.09375 178.226562 213.953125 177.765625 C 214.8125 177.308594 215.648438 176.808594 216.457031 176.265625 C 217.269531 175.726562 218.050781 175.144531 218.800781 174.527344 C 219.554688 173.910156 220.277344 173.257812 220.964844 172.566406 C 221.652344 171.878906 222.308594 171.15625 222.925781 170.40625 C 223.542969 169.652344 224.121094 168.871094 224.664062 168.0625 C 225.203125 167.25 225.703125 166.417969 226.164062 165.558594 C 226.621094 164.699219 227.039062 163.820312 227.410156 162.917969 C 227.785156 162.019531 228.113281 161.101562 228.394531 160.171875 C 228.675781 159.238281 228.914062 158.296875 229.105469 157.339844 C 229.292969 156.382812 229.4375 155.421875 229.53125 154.453125 C 229.628906 153.484375 229.675781 152.511719 229.675781 151.539062 L 229.675781 139.640625 C 229.675781 138.667969 229.628906 137.695312 229.53125 136.726562 C 229.4375 135.757812 229.292969 134.796875 229.105469 133.839844 C 228.914062 132.882812 228.675781 131.941406 228.394531 131.007812 C 228.113281 130.078125 227.785156 129.160156 227.410156 128.261719 C 227.039062 127.359375 226.621094 126.480469 226.164062 125.621094 C 225.703125 124.761719 225.203125 123.929688 224.664062 123.117188 C 224.121094 122.308594 223.542969 121.527344 222.925781 120.773438 C 222.308594 120.023438 221.652344 119.300781 220.964844 118.613281 C 220.277344 117.921875 219.554688 117.269531 218.800781 116.652344 C 218.050781 116.035156 217.269531 115.453125 216.457031 114.914062 C 215.648438 114.371094 214.8125 113.871094 213.953125 113.414062 C 213.09375 112.953125 212.214844 112.539062 211.316406 112.164062 C 210.417969 111.792969 209.5 111.464844 208.566406 111.183594 C 207.636719 110.898438 206.691406 110.664062 205.738281 110.472656 C 204.78125 110.28125 203.820312 110.140625 202.851562 110.042969 C 201.882812 109.949219 200.910156 109.902344 199.933594 109.902344 Z M 217.78125 151.539062 C 217.78125 152.121094 217.75 152.707031 217.695312 153.285156 C 217.636719 153.867188 217.550781 154.445312 217.4375 155.019531 C 217.324219 155.59375 217.179688 156.160156 217.011719 156.71875 C 216.839844 157.277344 216.644531 157.828125 216.421875 158.367188 C 216.199219 158.90625 215.949219 159.433594 215.671875 159.949219 C 215.398438 160.464844 215.097656 160.964844 214.773438 161.453125 C 214.449219 161.9375 214.101562 162.40625 213.730469 162.859375 C 213.359375 163.308594 212.964844 163.742188 212.554688 164.15625 C 212.140625 164.570312 211.707031 164.960938 211.253906 165.332031 C 210.804688 165.703125 210.335938 166.050781 209.847656 166.375 C 209.363281 166.699219 208.863281 167 208.347656 167.273438 C 207.832031 167.550781 207.304688 167.800781 206.765625 168.023438 C 206.222656 168.246094 205.675781 168.445312 205.113281 168.613281 C 204.554688 168.785156 203.988281 168.925781 203.417969 169.039062 C 202.84375 169.152344 202.265625 169.238281 201.683594 169.296875 C 201.101562 169.351562 200.519531 169.382812 199.933594 169.382812 L 188.039062 169.382812 L 188.039062 121.796875 L 199.933594 121.796875 C 200.519531 121.796875 201.101562 121.824219 201.683594 121.882812 C 202.265625 121.941406 202.84375 122.027344 203.417969 122.140625 C 203.988281 122.253906 204.554688 122.394531 205.113281 122.566406 C 205.675781 122.734375 206.222656 122.933594 206.765625 123.15625 C 207.304688 123.378906 207.832031 123.628906 208.347656 123.90625 C 208.863281 124.179688 209.363281 124.480469 209.847656 124.804688 C 210.335938 125.128906 210.804688 125.476562 211.253906 125.847656 C 211.707031 126.21875 212.140625 126.609375 212.554688 127.023438 C 212.964844 127.4375 213.359375 127.871094 213.730469 128.320312 C 214.101562 128.773438 214.449219 129.242188 214.773438 129.726562 C 215.097656 130.214844 215.398438 130.714844 215.671875 131.230469 C 215.949219 131.746094 216.199219 132.273438 216.421875 132.8125 C 216.644531 133.351562 216.839844 133.902344 217.011719 134.460938 C 217.179688 135.019531 217.324219 135.585938 217.4375 136.160156 C 217.550781 136.734375 217.636719 137.3125 217.695312 137.894531 C 217.75 138.472656 217.78125 139.058594 217.78125 139.640625 Z M 217.78125 151.539062 " fill-opacity="1" fill-rule="nonzero"/><path fill="#0b3988" d="M 75.027344 121.796875 L 92.871094 121.796875 C 93.261719 121.796875 93.648438 121.757812 94.03125 121.683594 C 94.414062 121.605469 94.785156 121.492188 95.144531 121.34375 C 95.507812 121.195312 95.851562 121.011719 96.175781 120.796875 C 96.5 120.578125 96.800781 120.332031 97.074219 120.054688 C 97.351562 119.777344 97.597656 119.480469 97.816406 119.152344 C 98.03125 118.828125 98.214844 118.488281 98.363281 118.125 C 98.515625 117.765625 98.628906 117.394531 98.703125 117.011719 C 98.78125 116.625 98.816406 116.238281 98.816406 115.847656 C 98.816406 115.457031 98.78125 115.070312 98.703125 114.6875 C 98.628906 114.304688 98.515625 113.933594 98.363281 113.574219 C 98.214844 113.210938 98.03125 112.871094 97.816406 112.542969 C 97.597656 112.21875 97.351562 111.917969 97.074219 111.644531 C 96.800781 111.367188 96.5 111.121094 96.175781 110.902344 C 95.851562 110.6875 95.507812 110.503906 95.144531 110.355469 C 94.785156 110.203125 94.414062 110.089844 94.03125 110.015625 C 93.648438 109.9375 93.261719 109.902344 92.871094 109.902344 L 75.027344 109.902344 C 74.050781 109.902344 73.078125 109.949219 72.109375 110.042969 C 71.140625 110.140625 70.179688 110.28125 69.222656 110.472656 C 68.269531 110.664062 67.324219 110.898438 66.390625 111.183594 C 65.460938 111.464844 64.542969 111.792969 63.644531 112.164062 C 62.746094 112.539062 61.863281 112.953125 61.007812 113.414062 C 60.148438 113.871094 59.3125 114.371094 58.503906 114.914062 C 57.691406 115.453125 56.910156 116.035156 56.160156 116.652344 C 55.40625 117.269531 54.683594 117.921875 53.996094 118.613281 C 53.308594 119.300781 52.652344 120.023438 52.035156 120.773438 C 51.417969 121.527344 50.839844 122.308594 50.296875 123.117188 C 49.757812 123.929688 49.257812 124.761719 48.796875 125.621094 C 48.335938 126.480469 47.921875 127.359375 47.550781 128.261719 C 47.175781 129.160156 46.847656 130.078125 46.566406 131.007812 C 46.28125 131.941406 46.046875 132.882812 45.855469 133.839844 C 45.667969 134.796875 45.523438 135.757812 45.429688 136.726562 C 45.332031 137.695312 45.285156 138.667969 45.285156 139.640625 L 45.285156 151.539062 C 45.285156 152.511719 45.332031 153.484375 45.429688 154.453125 C 45.523438 155.421875 45.667969 156.382812 45.855469 157.339844 C 46.046875 158.296875 46.28125 159.238281 46.566406 160.171875 C 46.847656 161.101562 47.175781 162.019531 47.550781 162.917969 C 47.921875 163.820312 48.335938 164.699219 48.796875 165.558594 C 49.257812 166.417969 49.757812 167.25 50.296875 168.0625 C 50.839844 168.871094 51.417969 169.652344 52.035156 170.40625 C 52.652344 171.15625 53.308594 171.878906 53.996094 172.566406 C 54.683594 173.257812 55.40625 173.910156 56.160156 174.527344 C 56.910156 175.144531 57.691406 175.726562 58.503906 176.265625 C 59.3125 176.808594 60.148438 177.308594 61.007812 177.765625 C 61.863281 178.226562 62.746094 178.640625 63.644531 179.015625 C 64.542969 179.386719 65.460938 179.714844 66.390625 179.996094 C 67.324219 180.28125 68.269531 180.515625 69.222656 180.707031 C 70.179688 180.898438 71.140625 181.039062 72.109375 181.136719 C 73.078125 181.230469 74.050781 181.277344 75.027344 181.277344 L 92.871094 181.277344 C 93.261719 181.277344 93.648438 181.238281 94.03125 181.164062 C 94.414062 181.085938 94.785156 180.976562 95.144531 180.824219 C 95.507812 180.675781 95.851562 180.492188 96.175781 180.277344 C 96.5 180.058594 96.800781 179.8125 97.074219 179.535156 C 97.351562 179.261719 97.597656 178.960938 97.816406 178.632812 C 98.03125 178.308594 98.214844 177.96875 98.363281 177.605469 C 98.515625 177.246094 98.628906 176.875 98.703125 176.492188 C 98.78125 176.109375 98.816406 175.71875 98.816406 175.332031 C 98.816406 174.941406 98.78125 174.554688 98.703125 174.167969 C 98.628906 173.785156 98.515625 173.414062 98.363281 173.054688 C 98.214844 172.691406 98.03125 172.351562 97.816406 172.027344 C 97.597656 171.699219 97.351562 171.398438 97.074219 171.125 C 96.800781 170.847656 96.5 170.601562 96.175781 170.382812 C 95.851562 170.167969 95.507812 169.984375 95.144531 169.835938 C 94.785156 169.683594 94.414062 169.574219 94.03125 169.496094 C 93.648438 169.421875 93.261719 169.382812 92.871094 169.382812 L 75.027344 169.382812 C 74.441406 169.382812 73.859375 169.351562 73.277344 169.296875 C 72.695312 169.238281 72.117188 169.152344 71.542969 169.039062 C 70.972656 168.925781 70.40625 168.785156 69.84375 168.613281 C 69.285156 168.445312 68.738281 168.246094 68.195312 168.023438 C 67.65625 167.800781 67.128906 167.550781 66.613281 167.273438 C 66.097656 167 65.597656 166.699219 65.113281 166.375 C 64.625 166.050781 64.15625 165.703125 63.707031 165.332031 C 63.253906 164.960938 62.820312 164.570312 62.40625 164.15625 C 61.996094 163.742188 61.601562 163.308594 61.230469 162.859375 C 60.859375 162.40625 60.511719 161.9375 60.1875 161.453125 C 59.863281 160.964844 59.5625 160.464844 59.289062 159.949219 C 59.011719 159.433594 58.761719 158.90625 58.539062 158.367188 C 58.316406 157.828125 58.121094 157.277344 57.949219 156.71875 C 57.78125 156.160156 57.636719 155.59375 57.523438 155.019531 C 57.410156 154.445312 57.324219 153.867188 57.265625 153.285156 C 57.210938 152.707031 57.179688 152.121094 57.179688 151.539062 L 57.179688 139.640625 C 57.179688 139.058594 57.210938 138.472656 57.265625 137.894531 C 57.324219 137.3125 57.410156 136.734375 57.523438 136.160156 C 57.636719 135.585938 57.78125 135.019531 57.949219 134.460938 C 58.121094 133.902344 58.316406 133.351562 58.539062 132.8125 C 58.761719 132.273438 59.011719 131.746094 59.289062 131.230469 C 59.5625 130.714844 59.863281 130.214844 60.1875 129.726562 C 60.511719 129.242188 60.859375 128.773438 61.230469 128.320312 C 61.601562 127.871094 61.996094 127.4375 62.40625 127.023438 C 62.820312 126.609375 63.253906 126.21875 63.707031 125.847656 C 64.15625 125.476562 64.625 125.128906 65.113281 124.804688 C 65.597656 124.480469 66.097656 124.179688 66.613281 123.90625 C 67.128906 123.628906 67.65625 123.378906 68.195312 123.15625 C 68.738281 122.933594 69.285156 122.734375 69.84375 122.566406 C 70.40625 122.394531 70.972656 122.253906 71.542969 122.140625 C 72.117188 122.027344 72.695312 121.941406 73.277344 121.882812 C 73.859375 121.824219 74.441406 121.796875 75.027344 121.796875 Z M 75.027344 121.796875 " fill-opacity="1" fill-rule="nonzero"/></svg>