<svg xmlns="http://www.w3.org/2000/svg" xmlns:xlink="http://www.w3.org/1999/xlink" width="500" zoomAndPan="magnify" viewBox="0 0 375 374.999991" height="500" preserveAspectRatio="xMidYMid meet" version="1.0"><defs><clipPath id="2913c076ee"><path d="M 8.492188 8.492188 L 366.242188 8.492188 L 366.242188 366.242188 L 8.492188 366.242188 Z M 8.492188 8.492188 " clip-rule="nonzero"/></clipPath></defs><g clip-path="url(#2913c076ee)"><path fill="#0b3988" d="M 187.425781 366.464844 C 139.617188 366.464844 94.6875 347.917969 60.828125 314.058594 C 26.96875 280.199219 8.492188 235.339844 8.492188 187.460938 C 8.492188 139.582031 27.183594 94.722656 60.972656 60.863281 C 94.761719 27.003906 139.691406 8.527344 187.570312 8.527344 C 235.445312 8.527344 280.304688 27.078125 314.164062 60.9375 C 348.023438 94.796875 366.5 139.65625 366.5 187.460938 C 366.5 235.265625 347.953125 280.269531 314.09375 314.058594 C 280.234375 347.84375 235.304688 366.464844 187.425781 366.464844 Z M 187.425781 13.703125 C 141.054688 13.703125 97.417969 31.75 64.636719 64.601562 C 31.785156 97.527344 13.742188 141.164062 13.742188 187.53125 C 13.742188 233.902344 31.785156 277.539062 64.636719 310.390625 C 97.492188 343.246094 141.128906 361.289062 187.496094 361.289062 C 233.867188 361.289062 277.503906 343.246094 310.355469 310.390625 C 343.207031 277.539062 361.253906 233.902344 361.253906 187.53125 C 361.253906 141.164062 343.207031 97.527344 310.355469 64.675781 C 277.574219 31.820312 233.9375 13.703125 187.425781 13.703125 Z M 121.863281 62.015625 L 125.671875 69.203125 L 134.082031 64.816406 L 137.675781 71.574219 L 129.410156 75.960938 L 136.816406 89.980469 L 128.761719 94.21875 L 110.289062 59.140625 L 127.398438 50.152344 L 131.136719 57.339844 Z M 174.414062 78.1875 L 166.648438 63.453125 L 164.0625 63.882812 L 166.648438 79.484375 L 158.09375 80.847656 L 151.695312 41.667969 L 164.277344 39.585938 C 168.085938 39.011719 171.179688 39.441406 173.550781 41.09375 C 175.996094 42.675781 177.503906 45.480469 178.152344 49.363281 C 178.367188 50.800781 178.4375 52.09375 178.296875 53.316406 C 178.152344 54.539062 177.933594 55.617188 177.433594 56.40625 C 177.074219 57.339844 176.496094 58.058594 175.996094 58.707031 C 175.417969 59.28125 174.84375 59.785156 174.269531 60.144531 L 183.757812 76.535156 Z M 169.453125 51.375 C 169.308594 50.367188 169.019531 49.648438 168.589844 49.003906 C 168.230469 48.425781 167.726562 47.996094 167.296875 47.707031 C 166.792969 47.421875 166.21875 47.277344 165.714844 47.207031 C 165.210938 47.132812 164.636719 47.207031 164.132812 47.277344 L 161.402344 47.707031 L 162.984375 57.628906 L 165.570312 57.199219 C 166.792969 56.980469 167.871094 56.40625 168.660156 55.472656 C 169.597656 54.539062 169.8125 53.171875 169.453125 51.375 Z M 196.195312 77.542969 L 202.523438 38.289062 L 221.5 41.308594 L 220.277344 49.144531 L 209.855469 47.492188 L 208.632812 55.183594 L 218.195312 56.695312 L 216.972656 64.027344 L 207.410156 62.515625 L 206.042969 70.929688 L 217.1875 72.726562 L 215.894531 80.707031 Z M 228.472656 85.089844 L 246.230469 49.578125 L 263.410156 58.132812 L 259.890625 65.25 L 250.472656 60.503906 L 246.949219 67.476562 L 255.71875 71.792969 L 252.414062 78.40625 L 243.640625 74.089844 L 239.832031 81.710938 L 249.898438 86.746094 L 246.300781 94.003906 Z M 98.210938 270.0625 C 98.355469 269.054688 98.355469 268.046875 98.136719 267.113281 C 97.921875 266.109375 97.417969 265.316406 96.84375 264.527344 C 96.269531 263.734375 95.40625 263.230469 94.398438 263.015625 C 93.394531 262.800781 92.316406 263.160156 91.238281 264.09375 C 90.230469 264.886719 89.800781 265.820312 89.800781 266.898438 C 89.800781 267.976562 89.941406 269.414062 90.300781 271.140625 C 90.519531 272.144531 90.734375 273.222656 90.878906 274.304688 C 91.023438 275.382812 91.023438 276.675781 90.878906 277.898438 C 90.734375 279.121094 90.375 280.339844 89.65625 281.5625 C 89.082031 282.785156 88.074219 283.9375 86.78125 285.085938 C 85.125 286.453125 83.402344 287.386719 81.746094 287.890625 C 80.09375 288.394531 78.441406 288.609375 76.859375 288.320312 C 75.351562 288.105469 73.839844 287.601562 72.472656 286.8125 C 71.109375 286.019531 69.886719 285.015625 68.878906 283.792969 C 67.371094 281.996094 66.292969 279.980469 65.789062 277.898438 C 65.285156 275.8125 64.996094 273.945312 65.214844 272.289062 L 73.335938 271.5 C 73.191406 272.722656 73.265625 273.945312 73.550781 275.164062 C 73.839844 276.386719 74.414062 277.464844 75.0625 278.257812 C 75.78125 279.121094 76.570312 279.550781 77.648438 279.695312 C 78.65625 279.839844 79.734375 279.480469 80.597656 278.6875 C 81.605469 277.824219 82.105469 276.890625 82.105469 275.667969 C 82.105469 274.519531 81.964844 272.9375 81.53125 271.066406 C 81.246094 269.917969 81.101562 268.695312 80.957031 267.617188 C 80.8125 266.46875 80.886719 265.316406 81.101562 264.167969 C 81.316406 263.015625 81.820312 261.9375 82.464844 260.789062 C 83.1875 259.710938 84.046875 258.632812 85.34375 257.625 C 86.996094 256.257812 88.792969 255.253906 90.445312 254.894531 C 92.101562 254.460938 93.753906 254.390625 95.261719 254.605469 C 96.773438 254.894531 98.210938 255.46875 99.433594 256.1875 C 100.726562 257.050781 101.804688 257.914062 102.8125 259.0625 C 104.175781 260.714844 105.183594 262.511719 105.6875 264.238281 C 106.191406 265.964844 106.40625 267.761719 106.191406 269.414062 Z M 104.320312 314.34375 L 113.808594 300.757812 L 106.261719 295.4375 L 96.773438 309.023438 L 89.441406 303.921875 L 112.230469 271.425781 L 119.5625 276.53125 L 110.933594 288.894531 L 118.484375 294.214844 L 127.109375 281.851562 L 134.441406 286.957031 L 111.652344 319.449219 Z M 128.042969 327.070312 L 142.496094 290.117188 L 150.90625 293.425781 L 136.457031 330.375 Z M 181.816406 312.476562 C 181.53125 314.703125 180.8125 316.5 180.019531 317.941406 C 179.085938 319.449219 178.007812 320.597656 176.714844 321.460938 C 175.417969 322.324219 174.054688 322.898438 172.617188 323.1875 C 171.179688 323.476562 169.667969 323.476562 168.230469 323.257812 L 164.421875 322.683594 L 162.191406 336.988281 L 153.492188 335.695312 L 159.53125 296.445312 L 171.679688 298.242188 C 173.046875 298.457031 174.484375 298.816406 175.777344 299.464844 C 177.144531 300.039062 178.367188 300.972656 179.375 302.050781 C 180.378906 303.203125 181.097656 304.566406 181.671875 306.292969 C 182.035156 308.089844 182.105469 310.105469 181.816406 312.476562 Z M 173.476562 311.324219 C 173.765625 309.601562 173.550781 308.234375 172.757812 307.300781 C 171.96875 306.367188 171.105469 305.863281 169.882812 305.71875 L 167.082031 305.285156 L 165.5 315.566406 L 168.300781 316 C 169.523438 316.140625 170.675781 315.925781 171.609375 315.0625 C 172.617188 314.273438 173.191406 313.050781 173.476562 311.324219 Z M 215.03125 309.601562 C 215.246094 311.828125 215.175781 313.699219 214.671875 315.421875 C 214.238281 317.078125 213.449219 318.515625 212.441406 319.664062 C 211.4375 320.816406 210.214844 321.75 208.917969 322.398438 C 207.554688 323.117188 206.1875 323.476562 204.75 323.617188 L 200.941406 324.050781 L 202.523438 338.429688 L 193.75 339.433594 L 189.222656 299.96875 L 201.515625 298.601562 C 202.953125 298.457031 204.320312 298.457031 205.828125 298.746094 C 207.265625 298.960938 208.632812 299.535156 209.925781 300.328125 C 211.21875 301.1875 212.296875 302.339844 213.234375 303.847656 C 214.167969 305.285156 214.742188 307.226562 215.03125 309.601562 Z M 206.621094 310.605469 C 206.402344 308.882812 205.828125 307.585938 204.894531 306.867188 C 203.960938 306.148438 202.808594 305.863281 201.585938 306.007812 L 198.785156 306.292969 L 199.933594 316.574219 L 202.738281 316.285156 C 203.960938 316.140625 204.964844 315.566406 205.683594 314.5625 C 206.546875 313.769531 206.90625 312.402344 206.621094 310.605469 Z M 233.003906 332.246094 L 219.992188 294.792969 L 228.546875 291.84375 L 241.558594 329.296875 Z M 272.613281 313.050781 L 251.835938 297.667969 L 251.695312 297.738281 L 264.921875 317.941406 L 258.164062 322.253906 L 236.667969 288.894531 L 244.9375 283.578125 L 265.855469 299.25 L 266 299.175781 L 252.628906 278.6875 L 259.097656 274.519531 L 280.59375 307.875 Z M 307.984375 279.839844 C 307.265625 281.5625 306.1875 283.433594 304.53125 285.230469 C 302.949219 287.097656 301.007812 288.535156 299.070312 289.328125 C 296.984375 290.191406 294.898438 290.476562 292.597656 290.335938 C 290.296875 290.191406 287.996094 289.542969 285.625 288.464844 C 283.179688 287.386719 280.808594 285.804688 278.4375 283.71875 C 276.0625 281.636719 274.195312 279.621094 272.757812 277.320312 C 271.320312 275.023438 270.3125 272.9375 269.808594 270.636719 C 269.304688 268.40625 269.304688 266.25 269.738281 264.167969 C 270.167969 262.082031 271.175781 260.140625 272.683594 258.34375 C 274.410156 256.257812 276.28125 254.894531 278.148438 254.101562 C 280.019531 253.3125 281.816406 252.953125 283.539062 253.09375 L 285.335938 261.074219 C 283.039062 260.859375 281.167969 261.652344 279.660156 263.449219 C 278.796875 264.382812 278.363281 265.460938 278.292969 266.46875 C 278.222656 267.617188 278.363281 268.765625 278.796875 269.917969 C 279.226562 271.140625 279.945312 272.289062 280.953125 273.511719 C 281.886719 274.734375 283.039062 275.882812 284.332031 276.960938 C 285.625 278.042969 286.917969 279.046875 288.214844 279.765625 C 289.507812 280.484375 290.800781 281.058594 292.023438 281.347656 C 293.246094 281.636719 294.394531 281.636719 295.546875 281.417969 C 296.625 281.203125 297.632812 280.558594 298.351562 279.695312 C 299.285156 278.6875 299.714844 277.683594 299.789062 276.746094 L 294.179688 271.929688 L 291.449219 275.09375 L 285.480469 269.988281 L 293.390625 260.789062 L 309.492188 274.589844 C 309.132812 276.460938 308.773438 278.113281 307.984375 279.839844 Z M 320.347656 187.460938 C 320.347656 146.554688 301.945312 108.597656 269.808594 83.222656 L 268.445312 84.945312 C 300.074219 109.890625 318.191406 147.347656 318.191406 187.53125 C 318.191406 207.085938 314.023438 225.921875 305.609375 243.535156 L 307.625 244.46875 C 316.035156 226.570312 320.347656 207.375 320.347656 187.460938 Z M 69.167969 243.03125 C 60.972656 225.5625 56.875 206.941406 56.875 187.460938 C 56.875 148.28125 74.269531 111.617188 104.394531 86.601562 L 103.027344 84.945312 C 72.332031 110.324219 54.644531 147.632812 54.644531 187.460938 C 54.644531 207.160156 58.816406 226.136719 67.226562 243.894531 Z M 259.027344 175.886719 L 241.558594 150.007812 C 238.898438 145.980469 234.367188 143.609375 229.550781 143.609375 L 209.0625 143.609375 L 209.0625 136.996094 C 209.0625 133.542969 206.332031 130.8125 202.882812 130.8125 L 112.875 130.8125 L 112.875 213.125 C 112.875 215.640625 114.960938 217.726562 117.476562 217.726562 L 130.273438 217.726562 C 131.207031 207.589844 139.617188 199.683594 149.96875 199.683594 C 160.324219 199.683594 168.804688 207.589844 169.667969 217.726562 L 211.078125 217.726562 C 212.011719 207.589844 220.421875 199.683594 230.773438 199.683594 C 241.125 199.683594 249.609375 207.589844 250.472656 217.726562 L 255.71875 217.726562 C 259.171875 217.726562 261.902344 214.996094 261.902344 211.542969 L 261.902344 186.09375 C 262.117188 182.5 261.039062 178.976562 259.027344 175.886719 Z M 248.242188 180.558594 L 220.710938 180.558594 C 219.558594 180.558594 218.625 179.625 218.625 178.476562 L 218.625 155.757812 C 218.625 154.609375 219.558594 153.671875 220.710938 153.671875 L 232.425781 153.671875 C 233.144531 153.671875 233.722656 153.960938 234.152344 154.609375 L 249.96875 177.324219 C 250.902344 178.691406 249.898438 180.558594 248.242188 180.558594 Z M 149.96875 202.34375 C 141.199219 202.34375 134.011719 209.027344 133.148438 217.582031 C 133.078125 218.15625 133.078125 218.734375 133.078125 219.308594 C 133.078125 219.882812 133.078125 220.53125 133.148438 221.03125 C 134.082031 229.585938 141.199219 236.273438 149.96875 236.273438 C 158.742188 236.273438 165.929688 229.585938 166.792969 221.03125 C 166.863281 220.457031 166.863281 219.882812 166.863281 219.308594 C 166.863281 218.734375 166.863281 218.085938 166.792969 217.582031 C 165.929688 209.027344 158.742188 202.34375 149.96875 202.34375 Z M 156.152344 221.105469 C 155.363281 223.835938 152.988281 225.851562 149.96875 225.851562 C 146.953125 225.851562 144.578125 223.835938 143.789062 221.105469 C 143.644531 220.601562 143.5 219.953125 143.5 219.378906 C 143.5 218.804688 143.574219 218.15625 143.789062 217.652344 C 144.578125 214.996094 146.953125 212.910156 149.96875 212.910156 C 152.917969 212.910156 155.363281 214.921875 156.152344 217.652344 C 156.296875 218.15625 156.441406 218.804688 156.441406 219.378906 C 156.367188 219.953125 156.296875 220.53125 156.152344 221.105469 Z M 230.917969 202.34375 C 222.148438 202.34375 214.957031 209.027344 214.097656 217.582031 C 214.023438 218.15625 214.023438 218.734375 214.023438 219.308594 C 214.023438 219.882812 214.023438 220.53125 214.097656 221.03125 C 215.03125 229.585938 222.148438 236.273438 230.917969 236.273438 C 239.6875 236.273438 246.878906 229.585938 247.738281 221.03125 C 247.8125 220.457031 247.8125 219.882812 247.8125 219.308594 C 247.8125 218.734375 247.8125 218.085938 247.738281 217.582031 C 246.949219 209.027344 239.6875 202.34375 230.917969 202.34375 Z M 237.101562 221.105469 C 236.308594 223.835938 233.9375 225.851562 230.917969 225.851562 C 227.96875 225.851562 225.527344 223.835938 224.734375 221.105469 C 224.589844 220.601562 224.449219 219.953125 224.449219 219.378906 C 224.449219 218.804688 224.519531 218.15625 224.734375 217.652344 C 225.527344 214.996094 227.898438 212.910156 230.917969 212.910156 C 233.867188 212.910156 236.308594 214.921875 237.101562 217.652344 C 237.242188 218.15625 237.386719 218.804688 237.386719 219.378906 C 237.386719 219.953125 237.242188 220.53125 237.101562 221.105469 Z M 237.101562 221.105469 " fill-opacity="1" fill-rule="nonzero"/></g></svg>